<?xml version="1.0" encoding="UTF-8" standalone="no"?>
<svg width="256px" height="257px" viewBox="0 0 256 257" version="1.1" xmlns="http://www.w3.org/2000/svg" xmlns:xlink="http://www.w3.org/1999/xlink" preserveAspectRatio="xMidYMid">
    <g>
        <path d="M128.001129,0.667 C57.3110392,0.667 0,57.9712627 0,128.663612 C0,199.353702 57.3110392,256.662482 128.001129,256.662482 C198.691219,256.662482 256,199.353702 256,128.663612 C256,57.9712627 198.691219,0.667 128.001129,0.667 Z M128.001129,240.227234 C66.3202716,240.227234 16.4359349,190.341635 16.4359349,128.663612 C16.4359349,66.9833299 66.3202716,17.0955006 128.001129,17.0955006 C189.681986,17.0955006 239.566323,66.9833299 239.566323,128.663612 C239.566323,190.341635 189.681986,240.227234 128.001129,240.227234 Z" fill="#E6522C"></path>
        <path d="M128.001129,17.0955006 C66.3202716,17.0955006 16.4359349,66.9833299 16.4359349,128.663612 C16.4359349,190.341635 66.3202716,240.227234 128.001129,240.227234 C189.681986,240.227234 239.566323,190.341635 239.566323,128.663612 C239.566323,66.9833299 189.681986,17.0955006 128.001129,17.0955006 Z M128.001129,218.952896 C78.0192798,218.952896 37.7091144,178.642731 37.7091144,128.663612 C37.7091144,78.6822347 78.0192798,38.3720693 128.001129,38.3720693 C177.982978,38.3720693 218.293143,78.6822347 218.293143,128.663612 C218.293143,178.642731 177.982978,218.952896 128.001129,218.952896 Z" fill="#E6522C"></path>
        <path d="M128.001129,218.952896 C177.982978,218.952896 218.293143,178.642731 218.293143,128.663612 C218.293143,78.6822347 177.982978,38.3720693 128.001129,38.3720693 C78.0192798,38.3720693 37.7091144,78.6822347 37.7091144,128.663612 C37.7091144,178.642731 78.0192798,218.952896 128.001129,218.952896 Z M128.001129,197.667994 C89.7379487,197.667994 58.9940161,166.924061 58.9940161,128.663612 C58.9940161,90.4009037 89.7379487,59.6569711 128.001129,59.6569711 C166.264309,59.6569711 196.998503,90.4009037 196.998503,128.663612 C196.998503,166.924061 166.264309,197.667994 128.001129,197.667994 Z" fill="#E6522C"></path>
        <path d="M128.001129,59.6569711 C89.7379487,59.6569711 58.9940161,90.4009037 58.9940161,128.663612 C58.9940161,166.924061 89.7379487,197.667994 128.001129,197.667994 C166.264309,197.667994 196.998503,166.924061 196.998503,128.663612 C196.998503,90.4009037 166.264309,59.6569711 128.001129,59.6569711 Z M128.001129,176.391831 C101.682996,176.391831 80.2723605,154.981196 80.2723605,128.663612 C80.2723605,102.343769 101.682996,80.9331333 128.001129,80.9331333 C154.319262,80.9331333 175.729897,102.343769 175.729897,128.663612 C175.729897,154.981196 154.319262,176.391831 128.001129,176.391831 Z" fill="#E6522C"></path>
        <path d="M128.001129,80.9331333 C101.682996,80.9331333 80.2723605,102.343769 80.2723605,128.663612 C80.2723605,154.981196 101.682996,176.391831 128.001129,176.391831 C154.319262,176.391831 175.729897,154.981196 175.729897,128.663612 C175.729897,102.343769 154.319262,80.9331333 128.001129,80.9331333 Z M128.001129,155.107669 C113.477551,155.107669 101.55652,143.186638 101.55652,128.663612 C101.55652,114.140586 113.477551,102.219555 128.001129,102.219555 C142.524155,102.219555 154.445186,114.140586 154.445186,128.663612 C154.445186,143.186638 142.524155,155.107669 128.001129,155.107669 Z" fill="#E6522C"></path>
        <path d="M128.001129,102.219555 C113.477551,102.219555 101.55652,114.140586 101.55652,128.663612 C101.55652,143.186638 113.477551,155.107669 128.001129,155.107669 C142.524155,155.107669 154.445186,143.186638 154.445186,128.663612 C154.445186,114.140586 142.524155,102.219555 128.001129,102.219555 Z M128.001129,133.823507 C125.123566,133.823507 122.841234,131.541175 122.841234,128.663612 C122.841234,125.786049 125.123566,123.503717 128.001129,123.503717 C130.878692,123.503717 133.161024,125.786049 133.161024,128.663612 C133.161024,131.541175 130.878692,133.823507 128.001129,133.823507 Z" fill="#E6522C"></path>
    </g>
</svg>
