<svg xmlns="http://www.w3.org/2000/svg" xmlns:xlink="http://www.w3.org/1999/xlink" xmlns:s="https://github.com/nturley/netlistsvg" width="249" height="122">
  <style>svg {
    stroke:#000;
    fill:none;
  }
  text {
    fill:#000;
    stroke:none;
    font-size:10px;
    font-weight: bold;
    font-family: "Courier New", monospace;
  }
  .nodelabel {
    text-anchor: middle;
  }
  .inputPortLabel {
    text-anchor: end;
  }
  .splitjoinBody {
    fill:#000;
  }</style>
  <g s:type="generic" transform="translate(84,87)" s:width="30" s:height="40" id="cell_R1">
    <text x="15" y="-4" class="nodelabel cell_R1" s:attribute="ref">r_v</text>
    <rect width="30" height="20" s:generic="body" class="cell_R1"/>
    <g transform="translate(0,10)" s:x="0" s:y="10" s:pid="in0" id="port_R1~A">
      <text x="-3" y="-4" class="inputPortLabel cell_R1">A</text>
    </g>
    <g transform="translate(30,10)" s:x="30" s:y="10" s:pid="out0" id="port_R1~B">
      <text x="5" y="-4" style="fill:#000; stroke:none" class="cell_R1">B</text>
    </g>
  </g>
  <g s:type="generic" transform="translate(164,87)" s:width="30" s:height="40" id="cell_LED1">
    <text x="15" y="-4" class="nodelabel cell_LED1" s:attribute="ref">d_v</text>
    <rect width="30" height="20" s:generic="body" class="cell_LED1"/>
    <g transform="translate(0,10)" s:x="0" s:y="10" s:pid="in0" id="port_LED1~A">
      <text x="-3" y="-4" class="inputPortLabel cell_LED1">A</text>
    </g>
    <g transform="translate(30,10)" s:x="30" s:y="10" s:pid="out0" id="port_LED1~C">
      <text x="5" y="-4" style="fill:#000; stroke:none" class="cell_LED1">C</text>
    </g>
  </g>
  <g s:type="inputExt" transform="translate(12,87.5)" s:width="30" s:height="20" id="cell_Vcc">
    <text x="15" y="-4" class="nodelabel cell_Vcc" s:attribute="ref">Vcc</text>
    <s:alias val="$_inputExt_"/>
    <path d="M0,0 L0,20 L15,20 L30,10 L15,0 Z" class="cell_Vcc"/>
    <g s:x="28" s:y="10" s:pid="Y"/>
  </g>
  <g s:type="inputExt" transform="translate(164,22)" s:width="30" s:height="20" id="cell_GND">
    <text x="15" y="-4" class="nodelabel cell_GND" s:attribute="ref">GND</text>
    <s:alias val="$_inputExt_"/>
    <path d="M0,0 L0,20 L15,20 L30,10 L15,0 Z" class="cell_GND"/>
    <g s:x="28" s:y="10" s:pid="Y"/>
  </g>
  <line x1="40" x2="84" y1="97.5" y2="97.5" class="net_2"/>
  <line x1="115" x2="164" y1="97.5" y2="97.5" class="net_5"/>
  <line x1="195" x2="212" y1="97.5" y2="97.5" class="net_4"/>
  <line x1="212" x2="212" y1="97.5" y2="32" class="net_4"/>
  <line x1="192" x2="212" y1="32" y2="32" class="net_4"/>
</svg>
