<svg xmlns="http://www.w3.org/2000/svg" xmlns:xlink="http://www.w3.org/1999/xlink" xmlns:s="https://github.com/nturley/netlistsvg" width="83" height="254">
  <style>svg {
    stroke: #000;
    fill: none;
  }
  text {
    fill: #000;
    stroke: none;
    font-size: 10px;
    font-weight: bold;
    font-family: "Courier New", monospace;
  }
  .nodelabel {
    text-anchor: middle;
  }
  .inputPortLabel {
    text-anchor: end;
  }
  .splitjoinBody {
    fill: #000;
  }
  .symbol {
    stroke-linejoin: round;
    stroke-linecap: round;
    stroke-width: 2;
  }
  .detail {
    stroke-linejoin: round;
    stroke-linecap: round;
    fill: #000;
  }</style>
  <g s:type="resistor_v" s:width="10" s:height="50" transform="translate(47,47)" id="cell_R1">
    <s:alias val="r_v"/>
    <text x="15" y="15" s:attribute="ref" class="cell_R1">R1</text>
    <text x="15" y="30" s:attribute="value" class="cell_R1">100Ω</text>
    <path d="M0,10 V40 H10 V10 Z" class="symbol cell_R1"/>
    <path d="M5,0 V10 M5,40 V50" class="connect cell_R1"/>
    <g s:x="5" s:y="0" s:pid="A" s:position="top"/>
    <g s:x="5" s:y="50" s:pid="B" s:position="bottom"/>
  </g>
  <g s:type="inductor_v" s:width="10" s:height="50" transform="translate(47,102)" id="cell_L1">
    <s:alias val="l_v"/>
    <text x="15" y="15" s:attribute="ref" class="cell_L1">L1</text>
    <text x="15" y="35" s:attribute="value" class="cell_L1">10mH</text>
    <path d="M5,5 A5,5 0 0 1 5,15 A5,5 0 0 1 5,25 A5,5 0 0 1 5,35 A5,5 0 0 1 5,45" class="cell_L1"/>
    <path d="M5,0 V5 M5,45 V50" class="connect cell_L1"/>
    <g s:x="5" s:y="0" s:pid="A" s:position="top"/>
    <g s:x="5" s:y="50" s:pid="B" s:position="bottom"/>
  </g>
  <g s:type="capacitor_v" s:width="30" s:height="50" transform="translate(37,157)" id="cell_C1">
    <s:alias val="c_v"/>
    <text x="25" y="10" s:attribute="ref" class="cell_C1">C1</text>
    <text x="25" y="45" s:attribute="value" class="cell_C1">100µF</text>
    <path d="M0,20 H30 M0,30 H30" class="symbol cell_C1"/>
    <path d="M15,0 V20 M15,30 V50" class="connect cell_C1"/>
    <g s:x="15" s:y="0" s:pid="A" s:position="top"/>
    <g s:x="15" s:y="50" s:pid="B" s:position="bottom"/>
  </g>
  <g s:type="inputExt" s:width="30" s:height="20" transform="translate(12,22)" id="cell_Vin">
    <text x="15" y="-4" class="cell_Vin" s:attribute="ref">Vin</text>
    <s:alias val="$_inputExt_"/>
    <path d="M0,0 V20 H15 L30,10 15,0 Z" class="cell_Vin"/>
    <g s:x="30" s:y="10" s:pid="Y" s:position="right"/>
  </g>
  <g s:type="inputExt" s:width="30" s:height="20" transform="translate(12,222)" id="cell_GND">
    <text x="15" y="-4" class="cell_GND" s:attribute="ref">GND</text>
    <s:alias val="$_inputExt_"/>
    <path d="M0,0 V20 H15 L30,10 15,0 Z" class="cell_GND"/>
    <g s:x="30" s:y="10" s:pid="Y" s:position="right"/>
  </g>
  <line x1="42" x2="52" y1="32" y2="32" class="net_2"/>
  <line x1="52" x2="52" y1="32" y2="47" class="net_2"/>
  <line x1="52" x2="52" y1="97" y2="102" class="net_5"/>
  <line x1="52" x2="52" y1="152" y2="157" class="net_6"/>
  <line x1="52" x2="52" y1="207" y2="232" class="net_4"/>
  <line x1="52" x2="42" y1="232" y2="232" class="net_4"/>
</svg>
