<svg xmlns="http://www.w3.org/2000/svg" xmlns:xlink="http://www.w3.org/1999/xlink" contentStyleType="text/css" data-diagram-type="ACTIVITY" height="760px" preserveAspectRatio="none" style="width:770px;height:760px;background:#FFFFFF;" version="1.1" viewBox="0 0 770 760" width="770px" zoomAndPan="magnify"><defs/><g><ellipse cx="506.774" cy="20" fill="#222222" rx="10" ry="10" style="stroke:#222222;stroke-width:1;"/><rect fill="#F1F1F1" height="33.9688" rx="12.5" ry="12.5" style="stroke:#181818;stroke-width:0.5;" width="161" x="426.274" y="50"/><text fill="#000000" font-family="sans-serif" font-size="12" lengthAdjust="spacing" textLength="141" x="436.274" y="71.1387">Developer pushes code</text><rect fill="#F1F1F1" height="33.9688" rx="12.5" ry="12.5" style="stroke:#181818;stroke-width:0.5;" width="170.041" x="421.7535" y="103.9688"/><text fill="#000000" font-family="sans-serif" font-size="12" lengthAdjust="spacing" textLength="150.041" x="431.7535" y="125.1074">GitHub webhook triggers</text><rect fill="#F1F1F1" height="33.9688" rx="12.5" ry="12.5" style="stroke:#181818;stroke-width:0.5;" width="134.0059" x="439.7711" y="157.9375"/><text fill="#000000" font-family="sans-serif" font-size="12" lengthAdjust="spacing" textLength="114.0059" x="449.7711" y="179.0762">Jenkins starts build</text><polygon fill="#F1F1F1" points="474.8832,211.9063,538.6649,211.9063,550.6649,223.9063,538.6649,235.9063,474.8832,235.9063,462.8832,223.9063,474.8832,211.9063" style="stroke:#181818;stroke-width:0.5;"/><text fill="#000000" font-family="sans-serif" font-size="11" lengthAdjust="spacing" textLength="63.7817" x="474.8832" y="227.7144">Tests pass?</text><text fill="#000000" font-family="sans-serif" font-size="11" lengthAdjust="spacing" textLength="19.0083" x="443.8749" y="221.312">yes</text><text fill="#000000" font-family="sans-serif" font-size="11" lengthAdjust="spacing" textLength="13.7017" x="550.6649" y="221.312">no</text><rect fill="#F1F1F1" height="33.9688" rx="12.5" ry="12.5" style="stroke:#181818;stroke-width:0.5;" width="137.5742" x="267.3596" y="245.9063"/><text fill="#000000" font-family="sans-serif" font-size="12" lengthAdjust="spacing" textLength="117.5742" x="277.3596" y="267.0449">Build Docker image</text><rect fill="#F1F1F1" height="33.9688" rx="12.5" ry="12.5" style="stroke:#181818;stroke-width:0.5;" width="114.6348" x="278.8293" y="299.875"/><text fill="#000000" font-family="sans-serif" font-size="12" lengthAdjust="spacing" textLength="94.6348" x="288.8293" y="321.0137">Push to registry</text><polygon fill="#F1F1F1" points="284.5627,353.8438,387.7307,353.8438,399.7307,365.8438,387.7307,377.8438,284.5627,377.8438,272.5627,365.8438,284.5627,353.8438" style="stroke:#181818;stroke-width:0.5;"/><text fill="#000000" font-family="sans-serif" font-size="11" lengthAdjust="spacing" textLength="103.168" x="284.5627" y="369.6519">Deploy to staging?</text><text fill="#000000" font-family="sans-serif" font-size="11" lengthAdjust="spacing" textLength="19.0083" x="253.5544" y="363.2495">yes</text><text fill="#000000" font-family="sans-serif" font-size="11" lengthAdjust="spacing" textLength="13.7017" x="399.7307" y="363.2495">no</text><rect fill="#F1F1F1" height="33.9688" rx="12.5" ry="12.5" style="stroke:#181818;stroke-width:0.5;" width="126.1777" x="127.9917" y="387.8438"/><text fill="#000000" font-family="sans-serif" font-size="12" lengthAdjust="spacing" textLength="106.1777" x="137.9917" y="408.9824">Deploy to staging</text><rect fill="#F1F1F1" height="33.9688" rx="12.5" ry="12.5" style="stroke:#181818;stroke-width:0.5;" width="146.3926" x="117.8843" y="441.8125"/><text fill="#000000" font-family="sans-serif" font-size="12" lengthAdjust="spacing" textLength="126.3926" x="127.8843" y="462.9512">Run integration tests</text><polygon fill="#F1F1F1" points="159.1897,495.7813,222.9714,495.7813,234.9714,507.7813,222.9714,519.7813,159.1897,519.7813,147.1897,507.7813,159.1897,495.7813" style="stroke:#181818;stroke-width:0.5;"/><text fill="#000000" font-family="sans-serif" font-size="11" lengthAdjust="spacing" textLength="63.7817" x="159.1897" y="511.5894">Tests pass?</text><text fill="#000000" font-family="sans-serif" font-size="11" lengthAdjust="spacing" textLength="19.0083" x="128.1814" y="505.187">yes</text><text fill="#000000" font-family="sans-serif" font-size="11" lengthAdjust="spacing" textLength="13.7017" x="234.9714" y="505.187">no</text><rect fill="#F1F1F1" height="33.9688" rx="12.5" ry="12.5" style="stroke:#181818;stroke-width:0.5;" width="146.3926" x="23.9404" y="529.7813"/><text fill="#000000" font-family="sans-serif" font-size="12" lengthAdjust="spacing" textLength="126.3926" x="33.9404" y="550.9199">Deploy to production</text><rect fill="#F1F1F1" height="33.9688" rx="12.5" ry="12.5" style="stroke:#181818;stroke-width:0.5;" width="172.2734" x="11" y="583.75"/><text fill="#000000" font-family="sans-serif" font-size="12" lengthAdjust="spacing" textLength="152.2734" x="21" y="604.8887">Send success notification</text><rect fill="#F1F1F1" height="33.9688" rx="12.5" ry="12.5" style="stroke:#181818;stroke-width:0.5;" width="119.1641" x="225.4424" y="529.7813"/><text fill="#000000" font-family="sans-serif" font-size="12" lengthAdjust="spacing" textLength="99.1641" x="235.4424" y="550.9199">Rollback staging</text><rect fill="#F1F1F1" height="33.9688" rx="12.5" ry="12.5" style="stroke:#181818;stroke-width:0.5;" width="163.502" x="203.2734" y="583.75"/><text fill="#000000" font-family="sans-serif" font-size="12" lengthAdjust="spacing" textLength="143.502" x="213.2734" y="604.8887">Send failure notification</text><polygon fill="#F1F1F1" points="191.0806,623.7188,203.0806,635.7188,191.0806,647.7188,179.0806,635.7188,191.0806,623.7188" style="stroke:#181818;stroke-width:0.5;"/><rect fill="#F1F1F1" height="33.9688" rx="12.5" ry="12.5" style="stroke:#181818;stroke-width:0.5;" width="168.875" x="396.7754" y="387.8438"/><text fill="#000000" font-family="sans-serif" font-size="12" lengthAdjust="spacing" textLength="148.875" x="406.7754" y="408.9824">Manual approval needed</text><polygon fill="#F1F1F1" points="336.1467,653.7188,348.1467,665.7188,336.1467,677.7188,324.1467,665.7188,336.1467,653.7188" style="stroke:#181818;stroke-width:0.5;"/><rect fill="#F1F1F1" height="33.9688" rx="12.5" ry="12.5" style="stroke:#181818;stroke-width:0.5;" width="163.502" x="595.6504" y="245.9063"/><text fill="#000000" font-family="sans-serif" font-size="12" lengthAdjust="spacing" textLength="143.502" x="605.6504" y="267.0449">Send failure notification</text><polygon fill="#F1F1F1" points="506.774,683.7188,518.774,695.7188,506.774,707.7188,494.774,695.7188,506.774,683.7188" style="stroke:#181818;stroke-width:0.5;"/><ellipse cx="506.774" cy="738.7188" fill="none" rx="11" ry="11" style="stroke:#222222;stroke-width:1;"/><ellipse cx="506.774" cy="738.7188" fill="#222222" rx="6" ry="6" style="stroke:#222222;stroke-width:1;"/><line style="stroke:#181818;stroke-width:1;" x1="506.774" x2="506.774" y1="30" y2="50"/><polygon fill="#181818" points="502.774,40,506.774,50,510.774,40,506.774,44" style="stroke:#181818;stroke-width:1;"/><line style="stroke:#181818;stroke-width:1;" x1="506.774" x2="506.774" y1="83.9688" y2="103.9688"/><polygon fill="#181818" points="502.774,93.9688,506.774,103.9688,510.774,93.9688,506.774,97.9688" style="stroke:#181818;stroke-width:1;"/><line style="stroke:#181818;stroke-width:1;" x1="506.774" x2="506.774" y1="137.9375" y2="157.9375"/><polygon fill="#181818" points="502.774,147.9375,506.774,157.9375,510.774,147.9375,506.774,151.9375" style="stroke:#181818;stroke-width:1;"/><line style="stroke:#181818;stroke-width:1;" x1="336.1467" x2="336.1467" y1="279.875" y2="299.875"/><polygon fill="#181818" points="332.1467,289.875,336.1467,299.875,340.1467,289.875,336.1467,293.875" style="stroke:#181818;stroke-width:1;"/><line style="stroke:#181818;stroke-width:1;" x1="191.0806" x2="191.0806" y1="421.8125" y2="441.8125"/><polygon fill="#181818" points="187.0806,431.8125,191.0806,441.8125,195.0806,431.8125,191.0806,435.8125" style="stroke:#181818;stroke-width:1;"/><line style="stroke:#181818;stroke-width:1;" x1="97.1367" x2="97.1367" y1="563.75" y2="583.75"/><polygon fill="#181818" points="93.1367,573.75,97.1367,583.75,101.1367,573.75,97.1367,577.75" style="stroke:#181818;stroke-width:1;"/><line style="stroke:#181818;stroke-width:1;" x1="285.0244" x2="285.0244" y1="563.75" y2="583.75"/><polygon fill="#181818" points="281.0244,573.75,285.0244,583.75,289.0244,573.75,285.0244,577.75" style="stroke:#181818;stroke-width:1;"/><line style="stroke:#181818;stroke-width:1;" x1="147.1897" x2="97.1367" y1="507.7813" y2="507.7813"/><line style="stroke:#181818;stroke-width:1;" x1="97.1367" x2="97.1367" y1="507.7813" y2="529.7813"/><polygon fill="#181818" points="93.1367,519.7813,97.1367,529.7813,101.1367,519.7813,97.1367,523.7813" style="stroke:#181818;stroke-width:1;"/><line style="stroke:#181818;stroke-width:1;" x1="234.9714" x2="285.0244" y1="507.7813" y2="507.7813"/><line style="stroke:#181818;stroke-width:1;" x1="285.0244" x2="285.0244" y1="507.7813" y2="529.7813"/><polygon fill="#181818" points="281.0244,519.7813,285.0244,529.7813,289.0244,519.7813,285.0244,523.7813" style="stroke:#181818;stroke-width:1;"/><line style="stroke:#181818;stroke-width:1;" x1="97.1367" x2="97.1367" y1="617.7188" y2="635.7188"/><line style="stroke:#181818;stroke-width:1;" x1="97.1367" x2="179.0806" y1="635.7188" y2="635.7188"/><polygon fill="#181818" points="169.0806,631.7188,179.0806,635.7188,169.0806,639.7188,173.0806,635.7188" style="stroke:#181818;stroke-width:1;"/><line style="stroke:#181818;stroke-width:1;" x1="285.0244" x2="285.0244" y1="617.7188" y2="635.7188"/><line style="stroke:#181818;stroke-width:1;" x1="285.0244" x2="203.0806" y1="635.7188" y2="635.7188"/><polygon fill="#181818" points="213.0806,631.7188,203.0806,635.7188,213.0806,639.7188,209.0806,635.7188" style="stroke:#181818;stroke-width:1;"/><line style="stroke:#181818;stroke-width:1;" x1="191.0806" x2="191.0806" y1="475.7813" y2="495.7813"/><polygon fill="#181818" points="187.0806,485.7813,191.0806,495.7813,195.0806,485.7813,191.0806,489.7813" style="stroke:#181818;stroke-width:1;"/><line style="stroke:#181818;stroke-width:1;" x1="272.5627" x2="191.0806" y1="365.8438" y2="365.8438"/><line style="stroke:#181818;stroke-width:1;" x1="191.0806" x2="191.0806" y1="365.8438" y2="387.8438"/><polygon fill="#181818" points="187.0806,377.8438,191.0806,387.8438,195.0806,377.8438,191.0806,381.8438" style="stroke:#181818;stroke-width:1;"/><line style="stroke:#181818;stroke-width:1;" x1="399.7307" x2="481.2129" y1="365.8438" y2="365.8438"/><line style="stroke:#181818;stroke-width:1;" x1="481.2129" x2="481.2129" y1="365.8438" y2="387.8438"/><polygon fill="#181818" points="477.2129,377.8438,481.2129,387.8438,485.2129,377.8438,481.2129,381.8438" style="stroke:#181818;stroke-width:1;"/><line style="stroke:#181818;stroke-width:1;" x1="191.0806" x2="191.0806" y1="647.7188" y2="665.7188"/><line style="stroke:#181818;stroke-width:1;" x1="191.0806" x2="324.1467" y1="665.7188" y2="665.7188"/><polygon fill="#181818" points="314.1467,661.7188,324.1467,665.7188,314.1467,669.7188,318.1467,665.7188" style="stroke:#181818;stroke-width:1;"/><line style="stroke:#181818;stroke-width:1;" x1="481.2129" x2="481.2129" y1="421.8125" y2="665.7188"/><line style="stroke:#181818;stroke-width:1;" x1="481.2129" x2="348.1467" y1="665.7188" y2="665.7188"/><polygon fill="#181818" points="358.1467,661.7188,348.1467,665.7188,358.1467,669.7188,354.1467,665.7188" style="stroke:#181818;stroke-width:1;"/><line style="stroke:#181818;stroke-width:1;" x1="336.1467" x2="336.1467" y1="333.8438" y2="353.8438"/><polygon fill="#181818" points="332.1467,343.8438,336.1467,353.8438,340.1467,343.8438,336.1467,347.8438" style="stroke:#181818;stroke-width:1;"/><line style="stroke:#181818;stroke-width:1;" x1="462.8832" x2="336.1467" y1="223.9063" y2="223.9063"/><line style="stroke:#181818;stroke-width:1;" x1="336.1467" x2="336.1467" y1="223.9063" y2="245.9063"/><polygon fill="#181818" points="332.1467,235.9063,336.1467,245.9063,340.1467,235.9063,336.1467,239.9063" style="stroke:#181818;stroke-width:1;"/><line style="stroke:#181818;stroke-width:1;" x1="550.6649" x2="677.4014" y1="223.9063" y2="223.9063"/><line style="stroke:#181818;stroke-width:1;" x1="677.4014" x2="677.4014" y1="223.9063" y2="245.9063"/><polygon fill="#181818" points="673.4014,235.9063,677.4014,245.9063,681.4014,235.9063,677.4014,239.9063" style="stroke:#181818;stroke-width:1;"/><line style="stroke:#181818;stroke-width:1;" x1="336.1467" x2="336.1467" y1="677.7188" y2="695.7188"/><line style="stroke:#181818;stroke-width:1;" x1="336.1467" x2="494.774" y1="695.7188" y2="695.7188"/><polygon fill="#181818" points="484.774,691.7188,494.774,695.7188,484.774,699.7188,488.774,695.7188" style="stroke:#181818;stroke-width:1;"/><line style="stroke:#181818;stroke-width:1;" x1="677.4014" x2="677.4014" y1="279.875" y2="695.7188"/><line style="stroke:#181818;stroke-width:1;" x1="677.4014" x2="518.774" y1="695.7188" y2="695.7188"/><polygon fill="#181818" points="528.774,691.7188,518.774,695.7188,528.774,699.7188,524.774,695.7188" style="stroke:#181818;stroke-width:1;"/><line style="stroke:#181818;stroke-width:1;" x1="506.774" x2="506.774" y1="191.9063" y2="211.9063"/><polygon fill="#181818" points="502.774,201.9063,506.774,211.9063,510.774,201.9063,506.774,205.9063" style="stroke:#181818;stroke-width:1;"/><line style="stroke:#181818;stroke-width:1;" x1="506.774" x2="506.774" y1="707.7188" y2="727.7188"/><polygon fill="#181818" points="502.774,717.7188,506.774,727.7188,510.774,717.7188,506.774,721.7188" style="stroke:#181818;stroke-width:1;"/><!--SRC=[VOxDQiGm38JlUGeTTryXEHHAeALGADk-W6ChZeWh6SlUahUlJTZ-RClUnCpecz5iKkxw4SyO96A2M7H11IiEXwv_eFnO9lZ0QH5P8IVo7fDMvmbv9LRG1b2O2WKtT3J3uGsr2j6etXqXByXms52F7K1_tr8mYbrh4xqRNpkg_58x8GiazAGvRKrif15ZaAqvjSKJ-sjW_VsJ6NRzL1Y8C_faCWb3Rgjsx_R8AsfCuefjYE5YlY8xq68jgW9Bffci-KvWK8G3onVi925Cngw_5rv0iw5G4lu7OaTpTmtidmqN4y34EkrS3qPqwDhB_l0pVgjYJskM-0a0]--></g></svg>