<svg xmlns="http://www.w3.org/2000/svg" xmlns:xlink="http://www.w3.org/1999/xlink" contentStyleType="text/css" data-diagram-type="DESCRIPTION" height="368px" preserveAspectRatio="none" style="width:1150px;height:368px;background:#FFFFFF;" version="1.1" viewBox="0 0 1150 368" width="1150px" zoomAndPan="magnify"><defs/><g><!--cluster Kubernetes Cluster--><g class="cluster" data-entity="Kubernetes Cluster" data-source-line="1" data-uid="ent0002" id="cluster_Kubernetes Cluster"><polygon fill="none" points="16,16,26,6,1133,6,1133,276.59,1123,286.59,16,286.59,16,16" style="stroke:#181818;stroke-width:1;"/><line style="stroke:#181818;stroke-width:1;" x1="1123" x2="1133" y1="16" y2="6"/><line style="stroke:#181818;stroke-width:1;" x1="16" x2="1123" y1="16" y2="16"/><line style="stroke:#181818;stroke-width:1;" x1="1123" x2="1123" y1="16" y2="286.59"/><text fill="#000000" font-family="sans-serif" font-size="14" font-weight="bold" lengthAdjust="spacing" textLength="152.5576" x="494.2212" y="31.9951">Kubernetes Cluster</text></g><!--cluster Master Node--><g class="cluster" data-entity="Master Node" data-source-line="2" data-uid="ent0003" id="cluster_Master Node"><polygon fill="none" points="40,64,50,54,327,54,327,252.59,317,262.59,40,262.59,40,64" style="stroke:#181818;stroke-width:1;"/><line style="stroke:#181818;stroke-width:1;" x1="317" x2="327" y1="64" y2="54"/><line style="stroke:#181818;stroke-width:1;" x1="40" x2="317" y1="64" y2="64"/><line style="stroke:#181818;stroke-width:1;" x1="317" x2="317" y1="64" y2="262.59"/><text fill="#000000" font-family="sans-serif" font-size="14" font-weight="bold" lengthAdjust="spacing" textLength="100.5293" x="129.2354" y="79.9951">Master Node</text></g><!--cluster Worker Node 1--><g class="cluster" data-entity="Worker Node 1" data-source-line="8" data-uid="ent0007" id="cluster_Worker Node 1"><polygon fill="none" points="351,64,361,54,718,54,718,146.3,708,156.3,351,156.3,351,64" style="stroke:#181818;stroke-width:1;"/><line style="stroke:#181818;stroke-width:1;" x1="708" x2="718" y1="64" y2="54"/><line style="stroke:#181818;stroke-width:1;" x1="351" x2="708" y1="64" y2="64"/><line style="stroke:#181818;stroke-width:1;" x1="708" x2="708" y1="64" y2="156.3"/><text fill="#000000" font-family="sans-serif" font-size="14" font-weight="bold" lengthAdjust="spacing" textLength="118.0156" x="471.4922" y="79.9951">Worker Node 1</text></g><!--cluster Worker Node 2--><g class="cluster" data-entity="Worker Node 2" data-source-line="14" data-uid="ent0011" id="cluster_Worker Node 2"><polygon fill="none" points="742,64,752,54,1109,54,1109,146.3,1099,156.3,742,156.3,742,64" style="stroke:#181818;stroke-width:1;"/><line style="stroke:#181818;stroke-width:1;" x1="1099" x2="1109" y1="64" y2="54"/><line style="stroke:#181818;stroke-width:1;" x1="742" x2="1099" y1="64" y2="64"/><line style="stroke:#181818;stroke-width:1;" x1="1099" x2="1099" y1="64" y2="156.3"/><text fill="#000000" font-family="sans-serif" font-size="14" font-weight="bold" lengthAdjust="spacing" textLength="118.0156" x="862.4922" y="79.9951">Worker Node 2</text></g><!--entity API Server--><g class="entity" data-entity="API Server" data-source-line="3" data-uid="ent0004" id="entity_API Server"><rect fill="#F1F1F1" height="46.2969" rx="2.5" ry="2.5" style="stroke:#181818;stroke-width:0.5;" width="112.5088" x="198.75" y="200.3"/><rect fill="#F1F1F1" height="10" style="stroke:#181818;stroke-width:0.5;" width="15" x="291.2588" y="205.3"/><rect fill="#F1F1F1" height="2" style="stroke:#181818;stroke-width:0.5;" width="4" x="289.2588" y="207.3"/><rect fill="#F1F1F1" height="2" style="stroke:#181818;stroke-width:0.5;" width="4" x="289.2588" y="211.3"/><text fill="#000000" font-family="sans-serif" font-size="14" lengthAdjust="spacing" textLength="72.5088" x="213.75" y="233.2951">API Server</text></g><!--entity Scheduler--><g class="entity" data-entity="Scheduler" data-source-line="4" data-uid="ent0005" id="entity_Scheduler"><rect fill="#F1F1F1" height="46.2969" rx="2.5" ry="2.5" style="stroke:#181818;stroke-width:0.5;" width="110.0889" x="55.96" y="94"/><rect fill="#F1F1F1" height="10" style="stroke:#181818;stroke-width:0.5;" width="15" x="146.0489" y="99"/><rect fill="#F1F1F1" height="2" style="stroke:#181818;stroke-width:0.5;" width="4" x="144.0489" y="101"/><rect fill="#F1F1F1" height="2" style="stroke:#181818;stroke-width:0.5;" width="4" x="144.0489" y="105"/><text fill="#000000" font-family="sans-serif" font-size="14" lengthAdjust="spacing" textLength="70.0889" x="70.96" y="126.9951">Scheduler</text></g><!--entity Controller--><g class="entity" data-entity="Controller" data-source-line="5" data-uid="ent0006" id="entity_Controller"><rect fill="#F1F1F1" height="46.2969" rx="2.5" ry="2.5" style="stroke:#181818;stroke-width:0.5;" width="109.1729" x="201.41" y="94"/><rect fill="#F1F1F1" height="10" style="stroke:#181818;stroke-width:0.5;" width="15" x="290.5829" y="99"/><rect fill="#F1F1F1" height="2" style="stroke:#181818;stroke-width:0.5;" width="4" x="288.5829" y="101"/><rect fill="#F1F1F1" height="2" style="stroke:#181818;stroke-width:0.5;" width="4" x="288.5829" y="105"/><text fill="#000000" font-family="sans-serif" font-size="14" lengthAdjust="spacing" textLength="69.1729" x="216.41" y="126.9951">Controller</text></g><!--entity Kubelet 1--><g class="entity" data-entity="Kubelet 1" data-source-line="9" data-uid="ent0008" id="entity_Kubelet 1"><rect fill="#F1F1F1" height="46.2969" rx="2.5" ry="2.5" style="stroke:#181818;stroke-width:0.5;" width="106.9033" x="366.55" y="94"/><rect fill="#F1F1F1" height="10" style="stroke:#181818;stroke-width:0.5;" width="15" x="453.4533" y="99"/><rect fill="#F1F1F1" height="2" style="stroke:#181818;stroke-width:0.5;" width="4" x="451.4533" y="101"/><rect fill="#F1F1F1" height="2" style="stroke:#181818;stroke-width:0.5;" width="4" x="451.4533" y="105"/><text fill="#000000" font-family="sans-serif" font-size="14" lengthAdjust="spacing" textLength="66.9033" x="381.55" y="126.9951">Kubelet 1</text></g><!--entity Pod 1--><g class="entity" data-entity="Pod 1" data-source-line="10" data-uid="ent0009" id="entity_Pod 1"><rect fill="#F1F1F1" height="46.2969" rx="2.5" ry="2.5" style="stroke:#181818;stroke-width:0.5;" width="79.252" x="508.37" y="94"/><rect fill="#F1F1F1" height="10" style="stroke:#181818;stroke-width:0.5;" width="15" x="567.622" y="99"/><rect fill="#F1F1F1" height="2" style="stroke:#181818;stroke-width:0.5;" width="4" x="565.622" y="101"/><rect fill="#F1F1F1" height="2" style="stroke:#181818;stroke-width:0.5;" width="4" x="565.622" y="105"/><text fill="#000000" font-family="sans-serif" font-size="14" lengthAdjust="spacing" textLength="39.252" x="523.37" y="126.9951">Pod 1</text></g><!--entity Pod 2--><g class="entity" data-entity="Pod 2" data-source-line="11" data-uid="ent0010" id="entity_Pod 2"><rect fill="#F1F1F1" height="46.2969" rx="2.5" ry="2.5" style="stroke:#181818;stroke-width:0.5;" width="79.252" x="622.37" y="94"/><rect fill="#F1F1F1" height="10" style="stroke:#181818;stroke-width:0.5;" width="15" x="681.622" y="99"/><rect fill="#F1F1F1" height="2" style="stroke:#181818;stroke-width:0.5;" width="4" x="679.622" y="101"/><rect fill="#F1F1F1" height="2" style="stroke:#181818;stroke-width:0.5;" width="4" x="679.622" y="105"/><text fill="#000000" font-family="sans-serif" font-size="14" lengthAdjust="spacing" textLength="39.252" x="637.37" y="126.9951">Pod 2</text></g><!--entity Kubelet 2--><g class="entity" data-entity="Kubelet 2" data-source-line="15" data-uid="ent0012" id="entity_Kubelet 2"><rect fill="#F1F1F1" height="46.2969" rx="2.5" ry="2.5" style="stroke:#181818;stroke-width:0.5;" width="106.9033" x="757.55" y="94"/><rect fill="#F1F1F1" height="10" style="stroke:#181818;stroke-width:0.5;" width="15" x="844.4533" y="99"/><rect fill="#F1F1F1" height="2" style="stroke:#181818;stroke-width:0.5;" width="4" x="842.4533" y="101"/><rect fill="#F1F1F1" height="2" style="stroke:#181818;stroke-width:0.5;" width="4" x="842.4533" y="105"/><text fill="#000000" font-family="sans-serif" font-size="14" lengthAdjust="spacing" textLength="66.9033" x="772.55" y="126.9951">Kubelet 2</text></g><!--entity Pod 3--><g class="entity" data-entity="Pod 3" data-source-line="16" data-uid="ent0013" id="entity_Pod 3"><rect fill="#F1F1F1" height="46.2969" rx="2.5" ry="2.5" style="stroke:#181818;stroke-width:0.5;" width="79.252" x="899.37" y="94"/><rect fill="#F1F1F1" height="10" style="stroke:#181818;stroke-width:0.5;" width="15" x="958.622" y="99"/><rect fill="#F1F1F1" height="2" style="stroke:#181818;stroke-width:0.5;" width="4" x="956.622" y="101"/><rect fill="#F1F1F1" height="2" style="stroke:#181818;stroke-width:0.5;" width="4" x="956.622" y="105"/><text fill="#000000" font-family="sans-serif" font-size="14" lengthAdjust="spacing" textLength="39.252" x="914.37" y="126.9951">Pod 3</text></g><!--entity Pod 4--><g class="entity" data-entity="Pod 4" data-source-line="17" data-uid="ent0014" id="entity_Pod 4"><rect fill="#F1F1F1" height="46.2969" rx="2.5" ry="2.5" style="stroke:#181818;stroke-width:0.5;" width="79.252" x="1013.37" y="94"/><rect fill="#F1F1F1" height="10" style="stroke:#181818;stroke-width:0.5;" width="15" x="1072.622" y="99"/><rect fill="#F1F1F1" height="2" style="stroke:#181818;stroke-width:0.5;" width="4" x="1070.622" y="101"/><rect fill="#F1F1F1" height="2" style="stroke:#181818;stroke-width:0.5;" width="4" x="1070.622" y="105"/><text fill="#000000" font-family="sans-serif" font-size="14" lengthAdjust="spacing" textLength="39.252" x="1028.37" y="126.9951">Pod 4</text></g><!--entity ETCD--><g class="entity" data-entity="ETCD" data-source-line="21" data-uid="ent0015" id="entity_ETCD"><path d="M229.66,316.59 C229.66,306.59 255.0033,306.59 255.0033,306.59 C255.0033,306.59 280.3465,306.59 280.3465,316.59 L280.3465,341.8869 C280.3465,351.8869 255.0033,351.8869 255.0033,351.8869 C255.0033,351.8869 229.66,351.8869 229.66,341.8869 L229.66,316.59" fill="#F1F1F1" style="stroke:#181818;stroke-width:0.5;"/><path d="M229.66,316.59 C229.66,326.59 255.0033,326.59 255.0033,326.59 C255.0033,326.59 280.3465,326.59 280.3465,316.59" fill="none" style="stroke:#181818;stroke-width:0.5;"/><text fill="#000000" font-family="sans-serif" font-size="14" lengthAdjust="spacing" textLength="30.6865" x="239.66" y="343.5851">etcd</text></g><!--link API Server to ETCD--><g class="link" data-entity-1="API Server" data-entity-2="ETCD" data-source-line="23" data-uid="lnk16" id="link_API Server_ETCD"><path d="M255,246.97 C255,264.5 255,282.69 255,300.12" fill="none" id="API Server-to-ETCD" style="stroke:#181818;stroke-width:1;"/><polygon fill="#181818" points="255,306.12,259,297.12,255,301.12,251,297.12,255,306.12" style="stroke:#181818;stroke-width:1;"/></g><!--link Scheduler to API Server--><g class="link" data-entity-1="Scheduler" data-entity-2="API Server" data-source-line="24" data-uid="lnk17" id="link_Scheduler_API Server"><path d="M142.25,140.78 C166.4,158.27 194.8203,178.861 218.9603,196.341" fill="none" id="Scheduler-to-API Server" style="stroke:#181818;stroke-width:1;"/><polygon fill="#181818" points="223.82,199.86,218.8764,191.3417,219.7702,196.9275,214.1844,197.8214,223.82,199.86" style="stroke:#181818;stroke-width:1;"/></g><!--link Controller to API Server--><g class="link" data-entity-1="Controller" data-entity-2="API Server" data-source-line="25" data-uid="lnk18" id="link_Controller_API Server"><path d="M255.78,140.78 C255.62,158.27 255.4349,176.3803 255.2749,193.8603" fill="none" id="Controller-to-API Server" style="stroke:#181818;stroke-width:1;"/><polygon fill="#181818" points="255.22,199.86,259.3022,190.897,255.2658,194.8602,251.3025,190.8238,255.22,199.86" style="stroke:#181818;stroke-width:1;"/></g><!--link Kubelet 1 to API Server--><g class="link" data-entity-1="Kubelet 1" data-entity-2="API Server" data-source-line="26" data-uid="lnk19" id="link_Kubelet 1_API Server"><path d="M384.2,140.78 C356.52,158.27 323.4621,179.1747 295.8021,196.6547" fill="none" id="Kubelet 1-to-API Server" style="stroke:#181818;stroke-width:1;"/><polygon fill="#181818" points="290.73,199.86,300.475,198.4334,294.9567,197.1889,296.2012,191.6706,290.73,199.86" style="stroke:#181818;stroke-width:1;"/></g><!--link Kubelet 2 to API Server--><g class="link" data-entity-1="Kubelet 2" data-entity-2="API Server" data-source-line="27" data-uid="lnk20" id="link_Kubelet 2_API Server"><path d="M772.83,140.71 C756.46,149.42 736.81,158.63 718,164.3 C575.86,207.14 405.9666,218.2387 317.4766,221.2087" fill="none" id="Kubelet 2-to-API Server" style="stroke:#181818;stroke-width:1;"/><polygon fill="#181818" points="311.48,221.41,320.6091,225.1059,316.4772,221.2423,320.3408,217.1104,311.48,221.41" style="stroke:#181818;stroke-width:1;"/></g><!--SRC=[ZP0_2y8m4CNtV8gZUuT6Pq6YWuXIgE0W3cbp81WII58NwNUtYTQcVn1l2Dnxy7kNfxH0IFPrYKQXGmjCrjQXIU19e1qL_0Ft6XpRfJFyNDRv3Weq3pJNNYog6ufQ3ZIcbJDQViKcl572MPlx9m6oGOQ_JQA3BCBbMans-WUPpfBfYBGOxSkEt10YkECbjoqNNIKIu1Qs9xOX9Eu2qdJrbgCoWZXeB6vbnkq__iEaK_C5]--></g></svg>