<svg xmlns="http://www.w3.org/2000/svg" xmlns:xlink="http://www.w3.org/1999/xlink" contentStyleType="text/css" data-diagram-type="STATE" height="905px" preserveAspectRatio="none" style="width:739px;height:905px;background:#FFFFFF;" version="1.1" viewBox="0 0 739 905" width="739px" zoomAndPan="magnify"><defs/><g><ellipse cx="648" cy="16" fill="#222222" rx="10" ry="10" style="stroke:#222222;stroke-width:1;"/><g id="Pending"><rect fill="#F1F1F1" height="50" rx="12.5" ry="12.5" style="stroke:#181818;stroke-width:0.5;" width="76.4648" x="609.77" y="87"/><line style="stroke:#181818;stroke-width:0.5;" x1="609.77" x2="686.2348" y1="113.2969" y2="113.2969"/><text fill="#000000" font-family="sans-serif" font-size="14" lengthAdjust="spacing" textLength="56.4648" x="619.77" y="104.9951">Pending</text></g><g id="Building"><rect fill="#F1F1F1" height="50" rx="12.5" ry="12.5" style="stroke:#181818;stroke-width:0.5;" width="76.793" x="563.6" y="214"/><line style="stroke:#181818;stroke-width:0.5;" x1="563.6" x2="640.393" y1="240.2969" y2="240.2969"/><text fill="#000000" font-family="sans-serif" font-size="14" lengthAdjust="spacing" textLength="56.793" x="573.6" y="231.9951">Building</text></g><g id="Testing"><rect fill="#F1F1F1" height="50" rx="12.5" ry="12.5" style="stroke:#181818;stroke-width:0.5;" width="71.5977" x="177.2" y="341"/><line style="stroke:#181818;stroke-width:0.5;" x1="177.2" x2="248.7977" y1="367.2969" y2="367.2969"/><text fill="#000000" font-family="sans-serif" font-size="14" lengthAdjust="spacing" textLength="51.5977" x="187.2" y="358.9951">Testing</text></g><g id="Failed"><rect fill="#F1F1F1" height="50" rx="12.5" ry="12.5" style="stroke:#181818;stroke-width:0.5;" width="61.9111" x="276.04" y="849"/><line style="stroke:#181818;stroke-width:0.5;" x1="276.04" x2="337.9511" y1="875.2969" y2="875.2969"/><text fill="#000000" font-family="sans-serif" font-size="14" lengthAdjust="spacing" textLength="41.9111" x="286.04" y="866.9951">Failed</text></g><g id="Deploying"><rect fill="#F1F1F1" height="50" rx="12.5" ry="12.5" style="stroke:#181818;stroke-width:0.5;" width="90.6699" x="167.67" y="468"/><line style="stroke:#181818;stroke-width:0.5;" x1="167.67" x2="258.3399" y1="494.2969" y2="494.2969"/><text fill="#000000" font-family="sans-serif" font-size="14" lengthAdjust="spacing" textLength="70.6699" x="177.67" y="485.9951">Deploying</text></g><g id="Running"><rect fill="#F1F1F1" height="50" rx="12.5" ry="12.5" style="stroke:#181818;stroke-width:0.5;" width="77.9961" x="268" y="595"/><line style="stroke:#181818;stroke-width:0.5;" x1="268" x2="345.9961" y1="621.2969" y2="621.2969"/><text fill="#000000" font-family="sans-serif" font-size="14" lengthAdjust="spacing" textLength="57.9961" x="278" y="612.9951">Running</text></g><g id="Updating"><rect fill="#F1F1F1" height="50" rx="12.5" ry="12.5" style="stroke:#181818;stroke-width:0.5;" width="83.7383" x="265.13" y="722"/><line style="stroke:#181818;stroke-width:0.5;" x1="265.13" x2="348.8683" y1="748.2969" y2="748.2969"/><text fill="#000000" font-family="sans-serif" font-size="14" lengthAdjust="spacing" textLength="63.7383" x="275.13" y="739.9951">Updating</text></g><ellipse cx="513" cy="747" fill="none" rx="11" ry="11" style="stroke:#222222;stroke-width:1;"/><ellipse cx="513" cy="747" fill="#222222" rx="6" ry="6" style="stroke:#222222;stroke-width:1;"/><!--link *start* to Pending--><g class="link" data-entity-1=".start." data-entity-2="Pending" data-source-line="1" data-uid="lnk4" id="link_.start._Pending"><path d="M648,26.36 C648,40.29 648,60.95 648,80.65" fill="none" id="*start*-to-Pending" style="stroke:#181818;stroke-width:1;"/><polygon fill="#181818" points="648,86.65,652,77.65,648,81.65,644,77.65,648,86.65" style="stroke:#181818;stroke-width:1;"/></g><!--link Pending to Building--><g class="link" data-entity-1="Pending" data-entity-2="Building" data-source-line="2" data-uid="lnk6" id="link_Pending_Building"><path d="M618.86,137.44 C610.87,145.89 603.24,156.02 599,167 C593.31,181.73 593.1454,193.5501 595.3154,207.6201" fill="none" id="Pending-to-Building" style="stroke:#181818;stroke-width:1;"/><polygon fill="#181818" points="596.23,213.55,598.8114,204.0455,595.4679,208.6084,590.9049,205.2649,596.23,213.55" style="stroke:#181818;stroke-width:1;"/><text fill="#000000" font-family="sans-serif" font-size="13" lengthAdjust="spacing" textLength="68.5229" x="600" y="180.0669">Start Build</text></g><!--link Building to Testing--><g class="link" data-entity-1="Building" data-entity-2="Testing" data-source-line="3" data-uid="lnk8" id="link_Building_Testing"><path d="M563.28,252.44 C487.95,276.65 328.3523,327.9344 255.0023,351.5044" fill="none" id="Building-to-Testing" style="stroke:#181818;stroke-width:1;"/><polygon fill="#181818" points="249.29,353.34,259.0822,354.3949,254.0503,351.8104,256.6348,346.7784,249.29,353.34" style="stroke:#181818;stroke-width:1;"/><text fill="#000000" font-family="sans-serif" font-size="13" lengthAdjust="spacing" textLength="89.0957" x="431" y="307.0669">Build Success</text></g><!--link Building to Failed--><g class="link" data-entity-1="Building" data-entity-2="Failed" data-source-line="4" data-uid="lnk10" id="link_Building_Failed"><path d="M602,264.43 C602,289.63 602,330.06 602,365 C602,365 602,365 602,748 C602,861.61 420.21,873.4866 344.29,873.6566" fill="none" id="Building-to-Failed" style="stroke:#181818;stroke-width:1;"/><polygon fill="#181818" points="338.29,873.67,347.2989,877.6498,343.29,873.6588,347.281,869.6499,338.29,873.67" style="stroke:#181818;stroke-width:1;"/><text fill="#000000" font-family="sans-serif" font-size="13" lengthAdjust="spacing" textLength="68.9673" x="603" y="561.0669">Build Error</text></g><!--link Testing to Deploying--><g class="link" data-entity-1="Testing" data-entity-2="Deploying" data-source-line="5" data-uid="lnk12" id="link_Testing_Deploying"><path d="M213,391.4 C213,413.42 213,439.66 213,461.66" fill="none" id="Testing-to-Deploying" style="stroke:#181818;stroke-width:1;"/><polygon fill="#181818" points="213,467.66,217,458.66,213,462.66,209,458.66,213,467.66" style="stroke:#181818;stroke-width:1;"/><text fill="#000000" font-family="sans-serif" font-size="13" lengthAdjust="spacing" textLength="68.0659" x="214" y="434.0669">Tests Pass</text></g><!--link Testing to Failed--><g class="link" data-entity-1="Testing" data-entity-2="Failed" data-source-line="6" data-uid="lnk13" id="link_Testing_Failed"><path d="M176.94,372.07 C117.64,382.66 6,413.07 6,492 C6,492 6,492 6,748 C6,863.86 192.5501,874.3842 269.6401,873.9442" fill="none" id="Testing-to-Failed" style="stroke:#181818;stroke-width:1;"/><polygon fill="#181818" points="275.64,873.91,266.6173,869.9614,270.6401,873.9385,266.663,877.9613,275.64,873.91" style="stroke:#181818;stroke-width:1;"/><text fill="#000000" font-family="sans-serif" font-size="13" lengthAdjust="spacing" textLength="61.3818" x="7" y="624.5669">Tests Fail</text></g><!--link Deploying to Running--><g class="link" data-entity-1="Deploying" data-entity-2="Running" data-source-line="7" data-uid="lnk15" id="link_Deploying_Running"><path d="M231.35,518.4 C247.91,540.42 268.543,567.8652 285.093,589.8652" fill="none" id="Deploying-to-Running" style="stroke:#181818;stroke-width:1;"/><polygon fill="#181818" points="288.7,594.66,286.4861,585.0632,285.6942,590.6644,280.093,589.8725,288.7,594.66" style="stroke:#181818;stroke-width:1;"/><text fill="#000000" font-family="sans-serif" font-size="13" lengthAdjust="spacing" textLength="101.9814" x="267" y="561.0669">Deploy Success</text></g><!--link Deploying to Failed--><g class="link" data-entity-1="Deploying" data-entity-2="Failed" data-source-line="8" data-uid="lnk16" id="link_Deploying_Failed"><path d="M194.48,518.33 C168.23,555.93 125.85,630.27 149,692 C174.27,759.37 232.5625,814.3474 270.9425,845.5174" fill="none" id="Deploying-to-Failed" style="stroke:#181818;stroke-width:1;"/><polygon fill="#181818" points="275.6,849.3,271.1354,840.5212,271.7187,846.1479,266.092,846.7312,275.6,849.3" style="stroke:#181818;stroke-width:1;"/><text fill="#000000" font-family="sans-serif" font-size="13" lengthAdjust="spacing" textLength="81.853" x="150" y="688.0669">Deploy Error</text></g><!--link Running to Updating--><g class="link" data-entity-1="Running" data-entity-2="Updating" data-source-line="9" data-uid="lnk18" id="link_Running_Updating"><path d="M267.53,644.59 C257.31,652.82 247.61,663.05 242,675 C233.41,693.31 242.6309,706.6092 259.8409,719.2992" fill="none" id="Running-to-Updating" style="stroke:#181818;stroke-width:1;"/><polygon fill="#181818" points="264.67,722.86,259.8002,714.2993,260.6457,719.8926,255.0524,720.7382,264.67,722.86" style="stroke:#181818;stroke-width:1;"/><text fill="#000000" font-family="sans-serif" font-size="13" lengthAdjust="spacing" textLength="81.3008" x="243" y="688.0669">New Version</text></g><!--link Updating to Running--><g class="link" data-entity-1="Updating" data-entity-2="Running" data-source-line="10" data-uid="lnk19" id="link_Updating_Running"><path d="M320.82,721.69 C326.93,708.13 332.1,690.83 329,675 C327.03,664.97 325.5877,659.9444 321.6577,650.8844" fill="none" id="Updating-to-Running" style="stroke:#181818;stroke-width:1;"/><polygon fill="#181818" points="319.27,645.38,319.1819,655.2285,321.2597,649.967,326.5212,652.0449,319.27,645.38" style="stroke:#181818;stroke-width:1;"/><text fill="#000000" font-family="sans-serif" font-size="13" lengthAdjust="spacing" textLength="103.543" x="331" y="688.0669">Update Success</text></g><!--link Updating to Failed--><g class="link" data-entity-1="Updating" data-entity-2="Failed" data-source-line="11" data-uid="lnk20" id="link_Updating_Failed"><path d="M307,772.4 C307,794.42 307,820.66 307,842.66" fill="none" id="Updating-to-Failed" style="stroke:#181818;stroke-width:1;"/><polygon fill="#181818" points="307,848.66,311,839.66,307,843.66,303,839.66,307,848.66" style="stroke:#181818;stroke-width:1;"/><text fill="#000000" font-family="sans-serif" font-size="13" lengthAdjust="spacing" textLength="83.4146" x="308" y="815.0669">Update Error</text></g><!--link Failed to Pending--><g class="link" data-entity-1="Failed" data-entity-2="Pending" data-source-line="12" data-uid="lnk21" id="link_Failed_Pending"><path d="M338.11,872.04 C393.48,869.33 511.77,858.92 602,819 C649.56,797.96 695,800 695,748 C695,238 695,238 695,238 C695,201.14 679.8067,167.0722 666.0667,142.5922" fill="none" id="Failed-to-Pending" style="stroke:#181818;stroke-width:1;"/><polygon fill="#181818" points="663.13,137.36,664.0469,147.1661,665.5772,141.7202,671.0232,143.2505,663.13,137.36" style="stroke:#181818;stroke-width:1;"/><text fill="#000000" font-family="sans-serif" font-size="13" lengthAdjust="spacing" textLength="35.166" x="696" y="497.5669">Retry</text></g><!--link Running to *end*--><g class="link" data-entity-1="Running" data-entity-2=".end." data-source-line="13" data-uid="lnk23" id="link_Running_.end."><path d="M346.3,631.83 C374.65,640.74 413.04,655.14 443,675 C470.42,693.17 492.0175,718.743 503.2275,733.163" fill="none" id="Running-to-*end*" style="stroke:#181818;stroke-width:1;"/><polygon fill="#181818" points="506.91,737.9,504.5442,728.3395,503.8412,733.9525,498.2282,733.2495,506.91,737.9" style="stroke:#181818;stroke-width:1;"/><text fill="#000000" font-family="sans-serif" font-size="13" lengthAdjust="spacing" textLength="64.9048" x="465" y="688.0669">Shutdown</text></g><!--SRC=[LP6_3i8W48TtdeBPf2_Wu63KqJIjkZGEf5oKf866FsdwzW97pp8HFhxxtG73uSsRviHRq5Bf3ojhPkUWfhmvyjuBwn4mmibvWFEePCpxC8xWN2tTX9f0adErrbYsLIRX0lDaLin9tF5Mn92zGXbudhRiNvQCBcYD4SXfbbgZe6BXD5jnCfwp5ELITrZu2wnJHZF2TRECWPfL5lKg4lOgTFViqUZ0sxKQOuXV4r_-6xmqY_u1]--></g></svg>