<svg xmlns="http://www.w3.org/2000/svg" xmlns:xlink="http://www.w3.org/1999/xlink" contentStyleType="text/css" data-diagram-type="DESCRIPTION" height="487px" preserveAspectRatio="none" style="width:549px;height:487px;background:#FFFFFF;" version="1.1" viewBox="0 0 549 487" width="549px" zoomAndPan="magnify"><defs/><g><!--cluster AWS Cloud--><g class="cluster" data-entity="AWS Cloud" data-source-line="1" data-uid="ent0002" id="cluster_AWS Cloud"><path d="M8.5,6 L95.4141,6 A3.75,3.75 0 0 1 97.9141,8.5 L104.9141,28.2969 L359.5,28.2969 A2.5,2.5 0 0 1 362,30.7969 L362,352.39 A2.5,2.5 0 0 1 359.5,354.89 L8.5,354.89 A2.5,2.5 0 0 1 6,352.39 L6,8.5 A2.5,2.5 0 0 1 8.5,6" fill="none" style="stroke:#000000;stroke-width:1.5;"/><line style="stroke:#000000;stroke-width:1.5;" x1="6" x2="104.9141" y1="28.2969" y2="28.2969"/><text fill="#000000" font-family="sans-serif" font-size="14" font-weight="bold" lengthAdjust="spacing" textLength="85.9141" x="10" y="20.9951">AWS Cloud</text></g><!--cluster Monitoring--><g class="cluster" data-entity="Monitoring" data-source-line="9" data-uid="ent0008" id="cluster_Monitoring"><path d="M388.5,257.6 L475.8174,257.6 A3.75,3.75 0 0 1 478.3174,260.1 L485.3174,279.8969 L539.5,279.8969 A2.5,2.5 0 0 1 542,282.3969 L542,477.69 A2.5,2.5 0 0 1 539.5,480.19 L388.5,480.19 A2.5,2.5 0 0 1 386,477.69 L386,260.1 A2.5,2.5 0 0 1 388.5,257.6" fill="none" style="stroke:#000000;stroke-width:1.5;"/><line style="stroke:#000000;stroke-width:1.5;" x1="386" x2="485.3174" y1="279.8969" y2="279.8969"/><text fill="#000000" font-family="sans-serif" font-size="14" font-weight="bold" lengthAdjust="spacing" textLength="86.3174" x="390" y="272.5951">Monitoring</text></g><!--entity LB--><g class="entity" data-entity="LB" data-source-line="2" data-uid="ent0003" id="entity_LB"><rect fill="#F1F1F1" height="46.2969" rx="2.5" ry="2.5" style="stroke:#181818;stroke-width:0.5;" width="139.873" x="114.06" y="41"/><rect fill="#F1F1F1" height="10" style="stroke:#181818;stroke-width:0.5;" width="15" x="233.933" y="46"/><rect fill="#F1F1F1" height="2" style="stroke:#181818;stroke-width:0.5;" width="4" x="231.933" y="48"/><rect fill="#F1F1F1" height="2" style="stroke:#181818;stroke-width:0.5;" width="4" x="231.933" y="52"/><text fill="#000000" font-family="sans-serif" font-size="14" lengthAdjust="spacing" textLength="99.873" x="129.06" y="73.9951">Load Balancer</text></g><!--entity EC2_1--><g class="entity" data-entity="EC2_1" data-source-line="3" data-uid="ent0004" id="entity_EC2_1"><rect fill="#F1F1F1" height="46.2969" rx="2.5" ry="2.5" style="stroke:#181818;stroke-width:0.5;" width="144.8838" x="21.56" y="148.3"/><rect fill="#F1F1F1" height="10" style="stroke:#181818;stroke-width:0.5;" width="15" x="146.4438" y="153.3"/><rect fill="#F1F1F1" height="2" style="stroke:#181818;stroke-width:0.5;" width="4" x="144.4438" y="155.3"/><rect fill="#F1F1F1" height="2" style="stroke:#181818;stroke-width:0.5;" width="4" x="144.4438" y="159.3"/><text fill="#000000" font-family="sans-serif" font-size="14" lengthAdjust="spacing" textLength="104.8838" x="36.56" y="181.2951">EC2 Instance 1</text></g><!--entity EC2_2--><g class="entity" data-entity="EC2_2" data-source-line="4" data-uid="ent0005" id="entity_EC2_2"><rect fill="#F1F1F1" height="46.2969" rx="2.5" ry="2.5" style="stroke:#181818;stroke-width:0.5;" width="144.8838" x="201.56" y="148.3"/><rect fill="#F1F1F1" height="10" style="stroke:#181818;stroke-width:0.5;" width="15" x="326.4438" y="153.3"/><rect fill="#F1F1F1" height="2" style="stroke:#181818;stroke-width:0.5;" width="4" x="324.4438" y="155.3"/><rect fill="#F1F1F1" height="2" style="stroke:#181818;stroke-width:0.5;" width="4" x="324.4438" y="159.3"/><text fill="#000000" font-family="sans-serif" font-size="14" lengthAdjust="spacing" textLength="104.8838" x="216.56" y="181.2951">EC2 Instance 2</text></g><!--entity RDS--><g class="entity" data-entity="RDS" data-source-line="5" data-uid="ent0006" id="entity_RDS"><rect fill="#F1F1F1" height="46.2969" rx="2.5" ry="2.5" style="stroke:#181818;stroke-width:0.5;" width="140.6455" x="26.68" y="292.6"/><rect fill="#F1F1F1" height="10" style="stroke:#181818;stroke-width:0.5;" width="15" x="147.3255" y="297.6"/><rect fill="#F1F1F1" height="2" style="stroke:#181818;stroke-width:0.5;" width="4" x="145.3255" y="299.6"/><rect fill="#F1F1F1" height="2" style="stroke:#181818;stroke-width:0.5;" width="4" x="145.3255" y="303.6"/><text fill="#000000" font-family="sans-serif" font-size="14" lengthAdjust="spacing" textLength="100.6455" x="41.68" y="325.5951">RDS Database</text></g><!--entity S3--><g class="entity" data-entity="S3" data-source-line="6" data-uid="ent0007" id="entity_S3"><rect fill="#F1F1F1" height="46.2969" rx="2.5" ry="2.5" style="stroke:#181818;stroke-width:0.5;" width="110.6289" x="211.69" y="292.6"/><rect fill="#F1F1F1" height="10" style="stroke:#181818;stroke-width:0.5;" width="15" x="302.3189" y="297.6"/><rect fill="#F1F1F1" height="2" style="stroke:#181818;stroke-width:0.5;" width="4" x="300.3189" y="299.6"/><rect fill="#F1F1F1" height="2" style="stroke:#181818;stroke-width:0.5;" width="4" x="300.3189" y="303.6"/><text fill="#000000" font-family="sans-serif" font-size="14" lengthAdjust="spacing" textLength="70.6289" x="226.69" y="325.5951">S3 Bucket</text></g><!--entity CW--><g class="entity" data-entity="CW" data-source-line="10" data-uid="ent0009" id="entity_CW"><rect fill="#F1F1F1" height="46.2969" rx="2.5" ry="2.5" style="stroke:#181818;stroke-width:0.5;" width="124.4717" x="401.76" y="292.6"/><rect fill="#F1F1F1" height="10" style="stroke:#181818;stroke-width:0.5;" width="15" x="506.2317" y="297.6"/><rect fill="#F1F1F1" height="2" style="stroke:#181818;stroke-width:0.5;" width="4" x="504.2317" y="299.6"/><rect fill="#F1F1F1" height="2" style="stroke:#181818;stroke-width:0.5;" width="4" x="504.2317" y="303.6"/><text fill="#000000" font-family="sans-serif" font-size="14" lengthAdjust="spacing" textLength="84.4717" x="416.76" y="325.5951">CloudWatch</text></g><!--entity Graf--><g class="entity" data-entity="Graf" data-source-line="11" data-uid="ent0010" id="entity_Graf"><rect fill="#F1F1F1" height="46.2969" rx="2.5" ry="2.5" style="stroke:#181818;stroke-width:0.5;" width="96.1436" x="415.93" y="417.89"/><rect fill="#F1F1F1" height="10" style="stroke:#181818;stroke-width:0.5;" width="15" x="492.0736" y="422.89"/><rect fill="#F1F1F1" height="2" style="stroke:#181818;stroke-width:0.5;" width="4" x="490.0736" y="424.89"/><rect fill="#F1F1F1" height="2" style="stroke:#181818;stroke-width:0.5;" width="4" x="490.0736" y="428.89"/><text fill="#000000" font-family="sans-serif" font-size="14" lengthAdjust="spacing" textLength="56.1436" x="430.93" y="450.8851">Grafana</text></g><!--link LB to EC2_1--><g class="link" data-entity-1="LB" data-entity-2="EC2_1" data-source-line="14" data-uid="lnk11" id="link_LB_EC2_1"><path d="M164.69,87.74 C149.51,105.51 132.3469,125.5778 117.1769,143.3378" fill="none" id="LB-to-EC2_1" style="stroke:#181818;stroke-width:1;"/><polygon fill="#181818" points="113.28,147.9,122.1669,143.6546,116.5274,144.0981,116.0839,138.4587,113.28,147.9" style="stroke:#181818;stroke-width:1;"/></g><!--link LB to EC2_2--><g class="link" data-entity-1="LB" data-entity-2="EC2_2" data-source-line="15" data-uid="lnk12" id="link_LB_EC2_2"><path d="M203.31,87.74 C218.49,105.51 235.6531,125.5778 250.8231,143.3378" fill="none" id="LB-to-EC2_2" style="stroke:#181818;stroke-width:1;"/><polygon fill="#181818" points="254.72,147.9,251.9161,138.4587,251.4726,144.0981,245.8331,143.6546,254.72,147.9" style="stroke:#181818;stroke-width:1;"/></g><!--link EC2_1 to RDS--><g class="link" data-entity-1="EC2_1" data-entity-2="RDS" data-source-line="16" data-uid="lnk13" id="link_EC2_1_RDS"><path d="M94.48,195 C95.04,221.64 95.8437,259.7013 96.4037,286.3013" fill="none" id="EC2_1-to-RDS" style="stroke:#181818;stroke-width:1;"/><polygon fill="#181818" points="96.53,292.3,100.3397,283.2178,96.4248,287.3011,92.3415,283.3862,96.53,292.3" style="stroke:#181818;stroke-width:1;"/></g><!--link EC2_2 to RDS--><g class="link" data-entity-1="EC2_2" data-entity-2="RDS" data-source-line="17" data-uid="lnk14" id="link_EC2_2_RDS"><path d="M245.95,195 C212.81,221.64 162.6764,261.9408 129.5864,288.5408" fill="none" id="EC2_2-to-RDS" style="stroke:#181818;stroke-width:1;"/><polygon fill="#181818" points="124.91,292.3,134.4307,289.7788,128.807,289.1673,129.4184,283.5436,124.91,292.3" style="stroke:#181818;stroke-width:1;"/></g><!--link EC2_1 to S3--><g class="link" data-entity-1="EC2_1" data-entity-2="S3" data-source-line="18" data-uid="lnk15" id="link_EC2_1_S3"><path d="M121.41,195 C153.81,221.64 202.7461,261.8886 235.0861,288.4886" fill="none" id="EC2_1-to-S3" style="stroke:#181818;stroke-width:1;"/><polygon fill="#181818" points="239.72,292.3,235.3101,283.4936,235.8584,289.1238,230.2282,289.6721,239.72,292.3" style="stroke:#181818;stroke-width:1;"/></g><!--link EC2_2 to S3--><g class="link" data-entity-1="EC2_2" data-entity-2="S3" data-source-line="19" data-uid="lnk16" id="link_EC2_2_S3"><path d="M272.89,195 C271.58,221.64 269.7051,259.7073 268.3951,286.3073" fill="none" id="EC2_2-to-S3" style="stroke:#181818;stroke-width:1;"/><polygon fill="#181818" points="268.1,292.3,272.5379,283.5076,268.3459,287.3061,264.5475,283.1141,268.1,292.3" style="stroke:#181818;stroke-width:1;"/></g><!--link EC2_1 to CW--><g class="link" data-entity-1="EC2_1" data-entity-2="CW" data-source-line="20" data-uid="lnk17" id="link_EC2_1_CW"><path d="M166.75,190.87 C233.52,208.23 327.2,233.87 362,249.6 C387.66,261.19 409.4953,275.044 429.1653,288.904" fill="none" id="EC2_1-to-CW" style="stroke:#181818;stroke-width:1;stroke-dasharray:7,7;"/><polygon fill="#181818" points="434.07,292.36,429.0169,283.9062,429.9827,289.48,424.4089,290.4458,434.07,292.36" style="stroke:#181818;stroke-width:1;"/><text fill="#000000" font-family="sans-serif" font-size="13" lengthAdjust="spacing" textLength="48.6357" x="341" y="237.6669">metrics</text></g><!--link EC2_2 to CW--><g class="link" data-entity-1="EC2_2" data-entity-2="CW" data-source-line="21" data-uid="lnk18" id="link_EC2_2_CW"><path d="M346.59,190.3 C368.63,198.22 391.8,209.31 410,224.6 C431.65,242.78 444.5191,266.484 453.1691,286.694" fill="none" id="EC2_2-to-CW" style="stroke:#181818;stroke-width:1;stroke-dasharray:7,7;"/><polygon fill="#181818" points="455.53,292.21,455.666,282.3621,453.5626,287.6133,448.3113,285.5099,455.53,292.21" style="stroke:#181818;stroke-width:1;"/><text fill="#000000" font-family="sans-serif" font-size="13" lengthAdjust="spacing" textLength="48.6357" x="426" y="237.6669">metrics</text></g><!--link CW to Graf--><g class="link" data-entity-1="CW" data-entity-2="Graf" data-source-line="22" data-uid="lnk19" id="link_CW_Graf"><path d="M464,339.36 C464,361.61 464,389.37 464,411.57" fill="none" id="CW-to-Graf" style="stroke:#181818;stroke-width:1;"/><polygon fill="#181818" points="464,417.57,468,408.57,464,412.57,460,408.57,464,417.57" style="stroke:#181818;stroke-width:1;"/><text fill="#000000" font-family="sans-serif" font-size="13" lengthAdjust="spacing" textLength="56.3291" x="465" y="383.9569">visualize</text></g><!--SRC=[ROwn3e8m48RtFiN5NH9mSp0HDCO45naOZ35dhTY0nT3YeF7TRQ-86ktK__jwr_-2lCH2m62QPv1KTNiOm9s1FPkqnWF4MA7Yeja2QaXZR-P914kbZJCGah9e5_wnKMyZRzUp36PeS8zQaBF0csm4SSjBOGXd8_PWxFAgjwgLD7KZLT7texOv6dwYWIJtUD7W4HKIStUt9erXE9nq9Jz2n0XHTZs8VINlR9ctwa88GJ2nly8Opi8qaklkpG-smSsvCfPUfMwnaZVn1000]--></g></svg>