<svg xmlns="http://www.w3.org/2000/svg" xmlns:xlink="http://www.w3.org/1999/xlink" contentStyleType="text/css" data-diagram-type="SEQUENCE" height="415px" preserveAspectRatio="none" style="width:560px;height:415px;background:#FFFFFF;" version="1.1" viewBox="0 0 560 415" width="560px" zoomAndPan="magnify"><defs/><g><g><title>User</title><rect fill="#000000" fill-opacity="0.00000" height="253.0625" width="8" x="19.9551" y="81.2969"/><line style="stroke:#181818;stroke-width:0.5;stroke-dasharray:5,5;" x1="23" x2="23" y1="81.2969" y2="334.3594"/></g><g><title>Frontend</title><rect fill="#000000" fill-opacity="0.00000" height="253.0625" width="8" x="136.7769" y="81.2969"/><line style="stroke:#181818;stroke-width:0.5;stroke-dasharray:5,5;" x1="140.2222" x2="140.2222" y1="81.2969" y2="334.3594"/></g><g><title>API Gateway</title><rect fill="#000000" fill-opacity="0.00000" height="253.0625" width="8" x="269.144" y="81.2969"/><line style="stroke:#181818;stroke-width:0.5;stroke-dasharray:5,5;" x1="272.9224" x2="272.9224" y1="81.2969" y2="334.3594"/></g><g><title>Auth Service</title><rect fill="#000000" fill-opacity="0.00000" height="253.0625" width="8" x="424.6421" y="81.2969"/><line style="stroke:#181818;stroke-width:0.5;stroke-dasharray:5,5;" x1="428.1401" x2="428.1401" y1="81.2969" y2="334.3594"/></g><g><title>User DB</title><rect fill="#000000" fill-opacity="0.00000" height="253.0625" width="8" x="521.9131" y="81.2969"/><line style="stroke:#181818;stroke-width:0.5;stroke-dasharray:5,5;" x1="525.5405" x2="525.5405" y1="81.2969" y2="334.3594"/></g><g class="participant participant-head" data-participant="User"><text fill="#000000" font-family="sans-serif" font-size="14" lengthAdjust="spacing" textLength="31.9102" x="5" y="77.9951">User</text><ellipse cx="23.9551" cy="13.5" fill="#E2E2F0" rx="8" ry="8" style="stroke:#181818;stroke-width:0.5;"/><path d="M23.9551,21.5 L23.9551,48.5 M10.9551,29.5 L36.9551,29.5 M23.9551,48.5 L10.9551,63.5 M23.9551,48.5 L36.9551,63.5" fill="none" style="stroke:#181818;stroke-width:0.5;"/></g><g class="participant participant-tail" data-participant="User"><text fill="#000000" font-family="sans-serif" font-size="14" lengthAdjust="spacing" textLength="31.9102" x="5" y="346.3545">User</text><ellipse cx="23.9551" cy="358.1563" fill="#E2E2F0" rx="8" ry="8" style="stroke:#181818;stroke-width:0.5;"/><path d="M23.9551,366.1563 L23.9551,393.1563 M10.9551,374.1563 L36.9551,374.1563 M23.9551,393.1563 L10.9551,408.1563 M23.9551,393.1563 L36.9551,408.1563" fill="none" style="stroke:#181818;stroke-width:0.5;"/></g><g class="participant participant-head" data-participant="FE"><rect fill="#E2E2F0" height="30.2969" rx="2.5" ry="2.5" style="stroke:#181818;stroke-width:0.5;" width="77.1094" x="102.2222" y="50"/><text fill="#000000" font-family="sans-serif" font-size="14" lengthAdjust="spacing" textLength="63.1094" x="109.2222" y="69.9951">Frontend</text></g><g class="participant participant-tail" data-participant="FE"><rect fill="#E2E2F0" height="30.2969" rx="2.5" ry="2.5" style="stroke:#181818;stroke-width:0.5;" width="77.1094" x="102.2222" y="333.3594"/><text fill="#000000" font-family="sans-serif" font-size="14" lengthAdjust="spacing" textLength="63.1094" x="109.2222" y="353.3545">Frontend</text></g><g class="participant participant-head" data-participant="API"><rect fill="#E2E2F0" height="30.2969" rx="2.5" ry="2.5" style="stroke:#181818;stroke-width:0.5;" width="102.4434" x="221.9224" y="50"/><text fill="#000000" font-family="sans-serif" font-size="14" lengthAdjust="spacing" textLength="88.4434" x="228.9224" y="69.9951">API Gateway</text></g><g class="participant participant-tail" data-participant="API"><rect fill="#E2E2F0" height="30.2969" rx="2.5" ry="2.5" style="stroke:#181818;stroke-width:0.5;" width="102.4434" x="221.9224" y="333.3594"/><text fill="#000000" font-family="sans-serif" font-size="14" lengthAdjust="spacing" textLength="88.4434" x="228.9224" y="353.3545">API Gateway</text></g><g class="participant participant-head" data-participant="Auth"><rect fill="#E2E2F0" height="30.2969" rx="2.5" ry="2.5" style="stroke:#181818;stroke-width:0.5;" width="103.0039" x="377.1401" y="50"/><text fill="#000000" font-family="sans-serif" font-size="14" lengthAdjust="spacing" textLength="89.0039" x="384.1401" y="69.9951">Auth Service</text></g><g class="participant participant-tail" data-participant="Auth"><rect fill="#E2E2F0" height="30.2969" rx="2.5" ry="2.5" style="stroke:#181818;stroke-width:0.5;" width="103.0039" x="377.1401" y="333.3594"/><text fill="#000000" font-family="sans-serif" font-size="14" lengthAdjust="spacing" textLength="89.0039" x="384.1401" y="353.3545">Auth Service</text></g><g class="participant participant-head" data-participant="DB"><text fill="#000000" font-family="sans-serif" font-size="14" lengthAdjust="spacing" textLength="56.7451" x="494.5405" y="77.9951">User DB</text><path d="M507.9131,29 C507.9131,19 525.9131,19 525.9131,19 C525.9131,19 543.9131,19 543.9131,29 L543.9131,55 C543.9131,65 525.9131,65 525.9131,65 C525.9131,65 507.9131,65 507.9131,55 L507.9131,29" fill="#E2E2F0" style="stroke:#181818;stroke-width:0.5;"/><path d="M507.9131,29 C507.9131,39 525.9131,39 525.9131,39 C525.9131,39 543.9131,39 543.9131,29" fill="none" style="stroke:#181818;stroke-width:0.5;"/></g><g class="participant participant-tail" data-participant="DB"><text fill="#000000" font-family="sans-serif" font-size="14" lengthAdjust="spacing" textLength="56.7451" x="494.5405" y="346.3545">User DB</text><path d="M507.9131,359.6563 C507.9131,349.6563 525.9131,349.6563 525.9131,349.6563 C525.9131,349.6563 543.9131,349.6563 543.9131,359.6563 L543.9131,385.6563 C543.9131,395.6563 525.9131,395.6563 525.9131,395.6563 C525.9131,395.6563 507.9131,395.6563 507.9131,385.6563 L507.9131,359.6563" fill="#E2E2F0" style="stroke:#181818;stroke-width:0.5;"/><path d="M507.9131,359.6563 C507.9131,369.6563 525.9131,369.6563 525.9131,369.6563 C525.9131,369.6563 543.9131,369.6563 543.9131,359.6563" fill="none" style="stroke:#181818;stroke-width:0.5;"/></g><g class="message" data-participant-1="User" data-participant-2="FE"><polygon fill="#181818" points="128.7769,108.4297,138.7769,112.4297,128.7769,116.4297,132.7769,112.4297" style="stroke:#181818;stroke-width:1;"/><line style="stroke:#181818;stroke-width:1;" x1="23.9551" x2="134.7769" y1="112.4297" y2="112.4297"/><text fill="#000000" font-family="sans-serif" font-size="13" lengthAdjust="spacing" textLength="92.8218" x="30.9551" y="107.3638">Login Request</text></g><g class="message" data-participant-1="FE" data-participant-2="API"><polygon fill="#181818" points="261.144,137.5625,271.144,141.5625,261.144,145.5625,265.144,141.5625" style="stroke:#181818;stroke-width:1;"/><line style="stroke:#181818;stroke-width:1;" x1="140.7769" x2="267.144" y1="141.5625" y2="141.5625"/><text fill="#000000" font-family="sans-serif" font-size="13" lengthAdjust="spacing" textLength="108.3672" x="147.7769" y="136.4966">POST /auth/login</text></g><g class="message" data-participant-1="API" data-participant-2="Auth"><polygon fill="#181818" points="416.6421,166.6953,426.6421,170.6953,416.6421,174.6953,420.6421,170.6953" style="stroke:#181818;stroke-width:1;"/><line style="stroke:#181818;stroke-width:1;" x1="273.144" x2="422.6421" y1="170.6953" y2="170.6953"/><text fill="#000000" font-family="sans-serif" font-size="13" lengthAdjust="spacing" textLength="131.498" x="280.144" y="165.6294">Validate Credentials</text></g><g class="message" data-participant-1="Auth" data-participant-2="DB"><polygon fill="#181818" points="513.9131,195.8281,523.9131,199.8281,513.9131,203.8281,517.9131,199.8281" style="stroke:#181818;stroke-width:1;"/><line style="stroke:#181818;stroke-width:1;" x1="428.6421" x2="519.9131" y1="199.8281" y2="199.8281"/><text fill="#000000" font-family="sans-serif" font-size="13" lengthAdjust="spacing" textLength="73.271" x="435.6421" y="194.7622">Query User</text></g><g class="message" data-participant-1="DB" data-participant-2="Auth"><polygon fill="#181818" points="439.6421,224.9609,429.6421,228.9609,439.6421,232.9609,435.6421,228.9609" style="stroke:#181818;stroke-width:1;"/><line style="stroke:#181818;stroke-width:1;stroke-dasharray:2,2;" x1="433.6421" x2="524.9131" y1="228.9609" y2="228.9609"/><text fill="#000000" font-family="sans-serif" font-size="13" lengthAdjust="spacing" textLength="64.8032" x="445.6421" y="223.895">User Data</text></g><g class="message" data-participant-1="Auth" data-participant-2="API"><polygon fill="#181818" points="284.144,254.0938,274.144,258.0938,284.144,262.0938,280.144,258.0938" style="stroke:#181818;stroke-width:1;"/><line style="stroke:#181818;stroke-width:1;stroke-dasharray:2,2;" x1="278.144" x2="427.6421" y1="258.0938" y2="258.0938"/><text fill="#000000" font-family="sans-serif" font-size="13" lengthAdjust="spacing" textLength="68.4214" x="290.144" y="253.0278">JWT Token</text></g><g class="message" data-participant-1="API" data-participant-2="FE"><polygon fill="#181818" points="151.7769,283.2266,141.7769,287.2266,151.7769,291.2266,147.7769,287.2266" style="stroke:#181818;stroke-width:1;"/><line style="stroke:#181818;stroke-width:1;stroke-dasharray:2,2;" x1="145.7769" x2="272.144" y1="287.2266" y2="287.2266"/><text fill="#000000" font-family="sans-serif" font-size="13" lengthAdjust="spacing" textLength="106.812" x="157.7769" y="282.1606">Token Response</text></g><g class="message" data-participant-1="FE" data-participant-2="User"><polygon fill="#181818" points="34.9551,312.3594,24.9551,316.3594,34.9551,320.3594,30.9551,316.3594" style="stroke:#181818;stroke-width:1;"/><line style="stroke:#181818;stroke-width:1;stroke-dasharray:2,2;" x1="28.9551" x2="139.7769" y1="316.3594" y2="316.3594"/><text fill="#000000" font-family="sans-serif" font-size="13" lengthAdjust="spacing" textLength="91.7617" x="40.9551" y="311.2935">Login Success</text></g><!--SRC=[NOz1JyCm38Nl-HLMxzFkFKoYT9s6a1Yq6sSljRQ8AYcn2zg_nqax93ZwlMU_psWbH3WoHJDY56VTY5wWQ6BmGhul01cQxL_puR277GfzuotxElyBJ7A5bkANipGdL30z2fwH2OhK1tMLhReo9i-hZHQLy1mkpiCRVKx4OffjqhMWXCDBsy4QzT9wI1cJC9AfIWad79mM43n6wicBmu5Dvj18NPNmEb6ypP_M5Qn-5sSMHLlIzxgdzmwwy45BpqAN5QNZCNYcZATEkd4dRoThYVa7]--></g></svg>