<svg xmlns="http://www.w3.org/2000/svg" xmlns:xlink="http://www.w3.org/1999/xlink" contentStyleType="text/css" data-diagram-type="ACTIVITY" height="1135px" preserveAspectRatio="none" style="width:153px;height:1135px;background:#FFFFFF;" version="1.1" viewBox="0 0 153 1135" width="153px" zoomAndPan="magnify"><defs/><g><rect fill="#F1F1F1" height="33.9688" rx="12.5" ry="12.5" style="stroke:#181818;stroke-width:0.5;" width="102.4531" x="25.5156" y="11"/><text fill="#000000" font-family="sans-serif" font-size="12" lengthAdjust="spacing" textLength="82.4531" x="35.5156" y="32.1387">DevOps Tools</text><rect fill="#F1F1F1" height="33.9688" rx="12.5" ry="12.5" style="stroke:#181818;stroke-width:0.5;" width="124.5137" x="14.4854" y="64.9688"/><ellipse cx="29.9854" cy="81.4375" fill="#000000" rx="2.5" ry="2.5"/><text fill="#000000" font-family="sans-serif" font-size="12" lengthAdjust="spacing" textLength="92.5137" x="36.4854" y="86.1074">Version Control</text><rect fill="#F1F1F1" height="33.9688" rx="12.5" ry="12.5" style="stroke:#181818;stroke-width:0.5;" width="53.3379" x="50.0732" y="118.9375"/><rect fill="#000000" height="3.5" width="3.5" x="69.0732" y="132.9063"/><text fill="#000000" font-family="sans-serif" font-size="12" lengthAdjust="spacing" textLength="17.3379" x="76.0732" y="140.0762">Git</text><rect fill="#F1F1F1" height="33.9688" rx="12.5" ry="12.5" style="stroke:#181818;stroke-width:0.5;" width="77.584" x="37.9502" y="172.9063"/><rect fill="#000000" height="3.5" width="3.5" x="56.9502" y="186.875"/><text fill="#000000" font-family="sans-serif" font-size="12" lengthAdjust="spacing" textLength="41.584" x="63.9502" y="194.0449">GitHub</text><rect fill="#F1F1F1" height="33.9688" rx="12.5" ry="12.5" style="stroke:#181818;stroke-width:0.5;" width="74.9941" x="39.2451" y="226.875"/><rect fill="#000000" height="3.5" width="3.5" x="58.2451" y="240.8438"/><text fill="#000000" font-family="sans-serif" font-size="12" lengthAdjust="spacing" textLength="38.9941" x="65.2451" y="248.0137">GitLab</text><rect fill="#F1F1F1" height="33.9688" rx="12.5" ry="12.5" style="stroke:#181818;stroke-width:0.5;" width="65.5801" x="43.9521" y="280.8438"/><ellipse cx="59.4521" cy="297.3125" fill="#000000" rx="2.5" ry="2.5"/><text fill="#000000" font-family="sans-serif" font-size="12" lengthAdjust="spacing" textLength="33.5801" x="65.9521" y="301.9824">CI/CD</text><rect fill="#F1F1F1" height="33.9688" rx="12.5" ry="12.5" style="stroke:#181818;stroke-width:0.5;" width="78.668" x="37.4082" y="334.8125"/><rect fill="#000000" height="3.5" width="3.5" x="56.4082" y="348.7813"/><text fill="#000000" font-family="sans-serif" font-size="12" lengthAdjust="spacing" textLength="42.668" x="63.4082" y="355.9512">Jenkins</text><rect fill="#F1F1F1" height="33.9688" rx="12.5" ry="12.5" style="stroke:#181818;stroke-width:0.5;" width="125.4434" x="14.0205" y="388.7813"/><rect fill="#000000" height="3.5" width="3.5" x="33.0205" y="402.75"/><text fill="#000000" font-family="sans-serif" font-size="12" lengthAdjust="spacing" textLength="89.4434" x="40.0205" y="409.9199">GitHub Actions</text><rect fill="#F1F1F1" height="33.9688" rx="12.5" ry="12.5" style="stroke:#181818;stroke-width:0.5;" width="81.7207" x="35.8818" y="442.75"/><rect fill="#000000" height="3.5" width="3.5" x="54.8818" y="456.7188"/><text fill="#000000" font-family="sans-serif" font-size="12" lengthAdjust="spacing" textLength="45.7207" x="61.8818" y="463.8887">ArgoCD</text><rect fill="#F1F1F1" height="33.9688" rx="12.5" ry="12.5" style="stroke:#181818;stroke-width:0.5;" width="96.8926" x="28.2959" y="496.7188"/><ellipse cx="43.7959" cy="513.1875" fill="#000000" rx="2.5" ry="2.5"/><text fill="#000000" font-family="sans-serif" font-size="12" lengthAdjust="spacing" textLength="64.8926" x="50.2959" y="517.8574">Containers</text><rect fill="#F1F1F1" height="33.9688" rx="12.5" ry="12.5" style="stroke:#181818;stroke-width:0.5;" width="78.4453" x="37.5195" y="550.6875"/><rect fill="#000000" height="3.5" width="3.5" x="56.5195" y="564.6563"/><text fill="#000000" font-family="sans-serif" font-size="12" lengthAdjust="spacing" textLength="42.4453" x="63.5195" y="571.8262">Docker</text><rect fill="#F1F1F1" height="33.9688" rx="12.5" ry="12.5" style="stroke:#181818;stroke-width:0.5;" width="104.7363" x="24.374" y="604.6563"/><rect fill="#000000" height="3.5" width="3.5" x="43.374" y="618.625"/><text fill="#000000" font-family="sans-serif" font-size="12" lengthAdjust="spacing" textLength="68.7363" x="50.374" y="625.7949">Kubernetes</text><rect fill="#F1F1F1" height="33.9688" rx="12.5" ry="12.5" style="stroke:#181818;stroke-width:0.5;" width="67.4297" x="43.0273" y="658.625"/><rect fill="#000000" height="3.5" width="3.5" x="62.0273" y="672.5938"/><text fill="#000000" font-family="sans-serif" font-size="12" lengthAdjust="spacing" textLength="31.4297" x="69.0273" y="679.7637">Helm</text><rect fill="#F1F1F1" height="33.9688" rx="12.5" ry="12.5" style="stroke:#181818;stroke-width:0.5;" width="96.1719" x="28.6563" y="712.5938"/><ellipse cx="44.1563" cy="729.0625" fill="#000000" rx="2.5" ry="2.5"/><text fill="#000000" font-family="sans-serif" font-size="12" lengthAdjust="spacing" textLength="64.1719" x="50.6563" y="733.7324">Monitoring</text><rect fill="#F1F1F1" height="33.9688" rx="12.5" ry="12.5" style="stroke:#181818;stroke-width:0.5;" width="108.1348" x="22.6748" y="766.5625"/><rect fill="#000000" height="3.5" width="3.5" x="41.6748" y="780.5313"/><text fill="#000000" font-family="sans-serif" font-size="12" lengthAdjust="spacing" textLength="72.1348" x="48.6748" y="787.7012">Prometheus</text><rect fill="#F1F1F1" height="33.9688" rx="12.5" ry="12.5" style="stroke:#181818;stroke-width:0.5;" width="84.123" x="34.6807" y="820.5313"/><rect fill="#000000" height="3.5" width="3.5" x="53.6807" y="834.5"/><text fill="#000000" font-family="sans-serif" font-size="12" lengthAdjust="spacing" textLength="48.123" x="60.6807" y="841.6699">Grafana</text><rect fill="#F1F1F1" height="33.9688" rx="12.5" ry="12.5" style="stroke:#181818;stroke-width:0.5;" width="88.8516" x="32.3164" y="874.5"/><rect fill="#000000" height="3.5" width="3.5" x="51.3164" y="888.4688"/><text fill="#000000" font-family="sans-serif" font-size="12" lengthAdjust="spacing" textLength="52.8516" x="58.3164" y="895.6387">DataDog</text><rect fill="#F1F1F1" height="33.9688" rx="12.5" ry="12.5" style="stroke:#181818;stroke-width:0.5;" width="114.377" x="19.5537" y="928.4688"/><ellipse cx="35.0537" cy="944.9375" fill="#000000" rx="2.5" ry="2.5"/><text fill="#000000" font-family="sans-serif" font-size="12" lengthAdjust="spacing" textLength="82.377" x="41.5537" y="949.6074">Infrastructure</text><rect fill="#F1F1F1" height="33.9688" rx="12.5" ry="12.5" style="stroke:#181818;stroke-width:0.5;" width="96.123" x="28.6807" y="982.4375"/><rect fill="#000000" height="3.5" width="3.5" x="47.6807" y="996.4063"/><text fill="#000000" font-family="sans-serif" font-size="12" lengthAdjust="spacing" textLength="60.123" x="54.6807" y="1003.5762">Terraform</text><rect fill="#F1F1F1" height="33.9688" rx="12.5" ry="12.5" style="stroke:#181818;stroke-width:0.5;" width="79.7344" x="36.875" y="1036.4063"/><rect fill="#000000" height="3.5" width="3.5" x="55.875" y="1050.375"/><text fill="#000000" font-family="sans-serif" font-size="12" lengthAdjust="spacing" textLength="43.7344" x="62.875" y="1057.5449">Ansible</text><rect fill="#F1F1F1" height="33.9688" rx="12.5" ry="12.5" style="stroke:#181818;stroke-width:0.5;" width="131.4844" x="11" y="1090.375"/><rect fill="#000000" height="3.5" width="3.5" x="30" y="1104.3438"/><text fill="#000000" font-family="sans-serif" font-size="12" lengthAdjust="spacing" textLength="95.4844" x="37" y="1111.5137">CloudFormation</text><line style="stroke:#181818;stroke-width:1;" x1="76.7422" x2="76.7422" y1="44.9688" y2="64.9688"/><polygon fill="#181818" points="72.7422,54.9688,76.7422,64.9688,80.7422,54.9688,76.7422,58.9688" style="stroke:#181818;stroke-width:1;"/><line style="stroke:#181818;stroke-width:1;" x1="76.7422" x2="76.7422" y1="98.9375" y2="118.9375"/><polygon fill="#181818" points="72.7422,108.9375,76.7422,118.9375,80.7422,108.9375,76.7422,112.9375" style="stroke:#181818;stroke-width:1;"/><line style="stroke:#181818;stroke-width:1;" x1="76.7422" x2="76.7422" y1="152.9063" y2="172.9063"/><polygon fill="#181818" points="72.7422,162.9063,76.7422,172.9063,80.7422,162.9063,76.7422,166.9063" style="stroke:#181818;stroke-width:1;"/><line style="stroke:#181818;stroke-width:1;" x1="76.7422" x2="76.7422" y1="206.875" y2="226.875"/><polygon fill="#181818" points="72.7422,216.875,76.7422,226.875,80.7422,216.875,76.7422,220.875" style="stroke:#181818;stroke-width:1;"/><line style="stroke:#181818;stroke-width:1;" x1="76.7422" x2="76.7422" y1="260.8438" y2="280.8438"/><polygon fill="#181818" points="72.7422,270.8438,76.7422,280.8438,80.7422,270.8438,76.7422,274.8438" style="stroke:#181818;stroke-width:1;"/><line style="stroke:#181818;stroke-width:1;" x1="76.7422" x2="76.7422" y1="314.8125" y2="334.8125"/><polygon fill="#181818" points="72.7422,324.8125,76.7422,334.8125,80.7422,324.8125,76.7422,328.8125" style="stroke:#181818;stroke-width:1;"/><line style="stroke:#181818;stroke-width:1;" x1="76.7422" x2="76.7422" y1="368.7813" y2="388.7813"/><polygon fill="#181818" points="72.7422,378.7813,76.7422,388.7813,80.7422,378.7813,76.7422,382.7813" style="stroke:#181818;stroke-width:1;"/><line style="stroke:#181818;stroke-width:1;" x1="76.7422" x2="76.7422" y1="422.75" y2="442.75"/><polygon fill="#181818" points="72.7422,432.75,76.7422,442.75,80.7422,432.75,76.7422,436.75" style="stroke:#181818;stroke-width:1;"/><line style="stroke:#181818;stroke-width:1;" x1="76.7422" x2="76.7422" y1="476.7188" y2="496.7188"/><polygon fill="#181818" points="72.7422,486.7188,76.7422,496.7188,80.7422,486.7188,76.7422,490.7188" style="stroke:#181818;stroke-width:1;"/><line style="stroke:#181818;stroke-width:1;" x1="76.7422" x2="76.7422" y1="530.6875" y2="550.6875"/><polygon fill="#181818" points="72.7422,540.6875,76.7422,550.6875,80.7422,540.6875,76.7422,544.6875" style="stroke:#181818;stroke-width:1;"/><line style="stroke:#181818;stroke-width:1;" x1="76.7422" x2="76.7422" y1="584.6563" y2="604.6563"/><polygon fill="#181818" points="72.7422,594.6563,76.7422,604.6563,80.7422,594.6563,76.7422,598.6563" style="stroke:#181818;stroke-width:1;"/><line style="stroke:#181818;stroke-width:1;" x1="76.7422" x2="76.7422" y1="638.625" y2="658.625"/><polygon fill="#181818" points="72.7422,648.625,76.7422,658.625,80.7422,648.625,76.7422,652.625" style="stroke:#181818;stroke-width:1;"/><line style="stroke:#181818;stroke-width:1;" x1="76.7422" x2="76.7422" y1="692.5938" y2="712.5938"/><polygon fill="#181818" points="72.7422,702.5938,76.7422,712.5938,80.7422,702.5938,76.7422,706.5938" style="stroke:#181818;stroke-width:1;"/><line style="stroke:#181818;stroke-width:1;" x1="76.7422" x2="76.7422" y1="746.5625" y2="766.5625"/><polygon fill="#181818" points="72.7422,756.5625,76.7422,766.5625,80.7422,756.5625,76.7422,760.5625" style="stroke:#181818;stroke-width:1;"/><line style="stroke:#181818;stroke-width:1;" x1="76.7422" x2="76.7422" y1="800.5313" y2="820.5313"/><polygon fill="#181818" points="72.7422,810.5313,76.7422,820.5313,80.7422,810.5313,76.7422,814.5313" style="stroke:#181818;stroke-width:1;"/><line style="stroke:#181818;stroke-width:1;" x1="76.7422" x2="76.7422" y1="854.5" y2="874.5"/><polygon fill="#181818" points="72.7422,864.5,76.7422,874.5,80.7422,864.5,76.7422,868.5" style="stroke:#181818;stroke-width:1;"/><line style="stroke:#181818;stroke-width:1;" x1="76.7422" x2="76.7422" y1="908.4688" y2="928.4688"/><polygon fill="#181818" points="72.7422,918.4688,76.7422,928.4688,80.7422,918.4688,76.7422,922.4688" style="stroke:#181818;stroke-width:1;"/><line style="stroke:#181818;stroke-width:1;" x1="76.7422" x2="76.7422" y1="962.4375" y2="982.4375"/><polygon fill="#181818" points="72.7422,972.4375,76.7422,982.4375,80.7422,972.4375,76.7422,976.4375" style="stroke:#181818;stroke-width:1;"/><line style="stroke:#181818;stroke-width:1;" x1="76.7422" x2="76.7422" y1="1016.4063" y2="1036.4063"/><polygon fill="#181818" points="72.7422,1026.4063,76.7422,1036.4063,80.7422,1026.4063,76.7422,1030.4063" style="stroke:#181818;stroke-width:1;"/><line style="stroke:#181818;stroke-width:1;" x1="76.7422" x2="76.7422" y1="1070.375" y2="1090.375"/><polygon fill="#181818" points="72.7422,1080.375,76.7422,1090.375,80.7422,1080.375,76.7422,1084.375" style="stroke:#181818;stroke-width:1;"/><!--SRC=[JL3BRi903BplL_W8ID22sghYL9gKDmALnzr935sHsCZPfUhVTvE0siDgHpFZySWTYEcwlfIm4ybBq-d0WRIqmX09EvKyK1sOM7V_fpwvmoLM4ABPGnJNt9puRBdyPuLHwa9OGutq9BMppaRBOLCjn9AUIMkuy0afawD6cL9UL0ChOUj4BPzgUgDIaFiYVzkbU4J69WiTnbBPOCP7nTAfJvrNgjKTQV2A5aqXBcsIDqgKYy_6GS6gi7aZpWeR7bwCsUJ8RhzQmlLsctvly3XuxlNx2JaSjFPyPlbcIAMus9p0sOBQfZNPBA4Khob1PaCFc_WgkstcU4Nuz5pvXh2-4C_ZnPs03xvQ5Iw8dPaVLd-6bwVkktMm9GqzuB0oCHtHvovCf9A5smnXlnjtNyqI-UJn5BA9JIGXLt-2jlq5]--></g></svg>