<?xml version="1.0" encoding="utf-8" standalone="no"?>
<!DOCTYPE svg PUBLIC "-//W3C//DTD SVG 1.1//EN"
  "http://www.w3.org/Graphics/SVG/1.1/DTD/svg11.dtd">
<svg xmlns:xlink="http://www.w3.org/1999/xlink" width="283.175937pt" height="164.028pt" viewBox="0 0 283.175937 164.028" xmlns="http://www.w3.org/2000/svg" version="1.1">
 <metadata>
  <rdf:RDF xmlns:dc="http://purl.org/dc/elements/1.1/" xmlns:cc="http://creativecommons.org/ns#" xmlns:rdf="http://www.w3.org/1999/02/22-rdf-syntax-ns#">
   <cc:Work>
    <dc:type rdf:resource="http://purl.org/dc/dcmitype/StillImage"/>
    <dc:date>2025-11-11T21:06:06.324550</dc:date>
    <dc:format>image/svg+xml</dc:format>
    <dc:creator>
     <cc:Agent>
      <dc:title>Matplotlib v3.10.7, https://matplotlib.org/</dc:title>
     </cc:Agent>
    </dc:creator>
   </cc:Work>
  </rdf:RDF>
 </metadata>
 <defs>
  <style type="text/css">*{stroke-linejoin: round; stroke-linecap: butt}</style>
 </defs>
 <g id="figure_1">
  <g id="patch_1">
   <path d="M 0 164.028 
L 283.175937 164.028 
L 283.175937 0 
L 0 0 
L 0 164.028 
z
" style="fill: none"/>
  </g>
  <g id="axes_1">
   <g id="patch_2">
    <path d="M 69.695937 100.308 
C 74.469593 100.308 79.048375 98.411406 82.42386 95.035922 
C 85.799344 91.660438 87.695937 87.081656 87.695937 82.308 
C 87.695937 77.534344 85.799344 72.955562 82.42386 69.580078 
C 79.048375 66.204594 74.469593 64.308 69.695937 64.308 
C 64.922282 64.308 60.3435 66.204594 56.968015 69.580078 
C 53.592531 72.955562 51.695937 77.534344 51.695937 82.308 
C 51.695937 87.081656 53.592531 91.660438 56.968015 95.035922 
C 60.3435 98.411406 64.922282 100.308 69.695937 100.308 
L 69.695937 100.308 
z
" clip-path="url(#p6228101b63)" style="fill: none; stroke: #000000; stroke-width: 2; stroke-linejoin: miter"/>
   </g>
   <g id="line2d_1">
    <path d="M 69.695937 136.308 
L 69.695937 100.308 
L 69.695937 100.308 
M 69.695937 64.308 
L 69.695937 64.308 
L 69.695937 28.308 
" clip-path="url(#p6228101b63)" style="fill: none; stroke: #000000; stroke-width: 2; stroke-linecap: round"/>
   </g>
   <g id="line2d_2">
    <path d="M 69.695937 91.308 
L 69.695937 82.308 
" clip-path="url(#p6228101b63)" style="fill: none; stroke: #000000; stroke-width: 2; stroke-linecap: round"/>
   </g>
   <g id="patch_3">
    <path d="M 66.995937 82.308 
L 69.695937 73.308 
L 72.395938 82.308 
z
" clip-path="url(#p6228101b63)"/>
   </g>
   <g id="line2d_3">
    <path d="M 69.695937 28.308 
L 96.695937 28.308 
L 123.695937 28.308 
" clip-path="url(#p6228101b63)" style="fill: none; stroke: #000000; stroke-width: 2; stroke-linecap: round"/>
   </g>
   <g id="line2d_4">
    <path d="M 123.695937 28.308 
L 132.695937 28.308 
L 141.695937 28.308 
" clip-path="url(#p6228101b63)" style="fill: none; stroke: #000000; stroke-width: 2; stroke-linecap: round"/>
   </g>
   <g id="line2d_5">
    <path d="M 141.695937 28.308 
L 141.695937 64.308 
L 150.695937 67.308 
L 132.695937 73.308 
L 150.695937 79.308 
L 132.695937 85.308 
L 150.695937 91.308 
L 132.695937 97.308 
L 141.695937 100.308 
L 141.695937 136.308 
" clip-path="url(#p6228101b63)" style="fill: none; stroke: #000000; stroke-width: 2; stroke-linecap: round"/>
   </g>
   <g id="line2d_6">
    <path d="M 123.695937 28.308 
L 168.695937 28.308 
L 213.695937 28.308 
" clip-path="url(#p6228101b63)" style="fill: none; stroke: #000000; stroke-width: 2; stroke-linecap: round"/>
   </g>
   <g id="line2d_7">
    <path d="M 213.695937 28.308 
L 213.695937 64.308 
L 222.695937 67.308 
L 204.695937 73.308 
L 222.695937 79.308 
L 204.695937 85.308 
L 222.695937 91.308 
L 204.695937 97.308 
L 213.695937 100.308 
L 213.695937 136.308 
" clip-path="url(#p6228101b63)" style="fill: none; stroke: #000000; stroke-width: 2; stroke-linecap: round"/>
   </g>
   <g id="line2d_8">
    <path d="M 213.695937 136.308 
L 168.695937 136.308 
L 123.695937 136.308 
" clip-path="url(#p6228101b63)" style="fill: none; stroke: #000000; stroke-width: 2; stroke-linecap: round"/>
   </g>
   <g id="line2d_9">
    <path d="M 123.695937 136.308 
L 96.695937 136.308 
L 69.695937 136.308 
" clip-path="url(#p6228101b63)" style="fill: none; stroke: #000000; stroke-width: 2; stroke-linecap: round"/>
   </g>
   <g id="line2d_10">
    <path d="M 186.695937 136.308 
L 186.695937 150.708 
L 177.695937 150.708 
L 195.695937 150.708 
M 180.395937 155.028 
L 192.995937 155.028 
M 184.895937 159.348 
L 188.495937 159.348 
" clip-path="url(#p6228101b63)" style="fill: none; stroke: #000000; stroke-width: 2; stroke-linecap: round"/>
   </g>
   <g id="line2d_11">
    <path d="M 206.495937 51.708 
L 145.295937 51.708 
" clip-path="url(#p6228101b63)" style="fill: none; stroke: #000000; stroke-width: 2; stroke-linecap: round"/>
   </g>
   <g id="patch_4">
    <path d="M 145.295937 55.308 
L 134.495937 51.708 
L 145.295937 48.108 
z
" clip-path="url(#p6228101b63)"/>
   </g>
   <g id="line2d_12">
    <path d="M 278.495937 51.708 
L 217.295937 51.708 
" clip-path="url(#p6228101b63)" style="fill: none; stroke: #000000; stroke-width: 2; stroke-linecap: round"/>
   </g>
   <g id="patch_5">
    <path d="M 217.295937 55.308 
L 206.495937 51.708 
L 217.295937 48.108 
z
" clip-path="url(#p6228101b63)"/>
   </g>
   <g id="text_1">
    <!-- IT = 6A -->
    <g transform="translate(0 85.895187) scale(0.13 -0.13)">
     <defs>
      <path id="DejaVuSans-49" d="M 628 4666 
L 1259 4666 
L 1259 0 
L 628 0 
L 628 4666 
z
" transform="scale(0.015625)"/>
      <path id="DejaVuSans-54" d="M -19 4666 
L 3928 4666 
L 3928 4134 
L 2272 4134 
L 2272 0 
L 1638 0 
L 1638 4134 
L -19 4134 
L -19 4666 
z
" transform="scale(0.015625)"/>
      <path id="DejaVuSans-20" transform="scale(0.015625)"/>
      <path id="DejaVuSans-3d" d="M 678 2906 
L 4684 2906 
L 4684 2381 
L 678 2381 
L 678 2906 
z
M 678 1631 
L 4684 1631 
L 4684 1100 
L 678 1100 
L 678 1631 
z
" transform="scale(0.015625)"/>
      <path id="DejaVuSans-36" d="M 2113 2584 
Q 1688 2584 1439 2293 
Q 1191 2003 1191 1497 
Q 1191 994 1439 701 
Q 1688 409 2113 409 
Q 2538 409 2786 701 
Q 3034 994 3034 1497 
Q 3034 2003 2786 2293 
Q 2538 2584 2113 2584 
z
M 3366 4563 
L 3366 3988 
Q 3128 4100 2886 4159 
Q 2644 4219 2406 4219 
Q 1781 4219 1451 3797 
Q 1122 3375 1075 2522 
Q 1259 2794 1537 2939 
Q 1816 3084 2150 3084 
Q 2853 3084 3261 2657 
Q 3669 2231 3669 1497 
Q 3669 778 3244 343 
Q 2819 -91 2113 -91 
Q 1303 -91 875 529 
Q 447 1150 447 2328 
Q 447 3434 972 4092 
Q 1497 4750 2381 4750 
Q 2619 4750 2861 4703 
Q 3103 4656 3366 4563 
z
" transform="scale(0.015625)"/>
      <path id="DejaVuSans-41" d="M 2188 4044 
L 1331 1722 
L 3047 1722 
L 2188 4044 
z
M 1831 4666 
L 2547 4666 
L 4325 0 
L 3669 0 
L 3244 1197 
L 1141 1197 
L 716 0 
L 50 0 
L 1831 4666 
z
" transform="scale(0.015625)"/>
     </defs>
     <use xlink:href="#DejaVuSans-49"/>
     <use xlink:href="#DejaVuSans-54" transform="translate(29.492188 0)"/>
     <use xlink:href="#DejaVuSans-20" transform="translate(90.576172 0)"/>
     <use xlink:href="#DejaVuSans-3d" transform="translate(122.363281 0)"/>
     <use xlink:href="#DejaVuSans-20" transform="translate(206.152344 0)"/>
     <use xlink:href="#DejaVuSans-36" transform="translate(237.939453 0)"/>
     <use xlink:href="#DejaVuSans-41" transform="translate(301.5625 0)"/>
    </g>
   </g>
   <g id="text_2">
    <!-- R1 -->
    <g transform="translate(133.709375 10.598625) scale(0.12 -0.12)">
     <defs>
      <path id="DejaVuSans-52" d="M 2841 2188 
Q 3044 2119 3236 1894 
Q 3428 1669 3622 1275 
L 4263 0 
L 3584 0 
L 2988 1197 
Q 2756 1666 2539 1819 
Q 2322 1972 1947 1972 
L 1259 1972 
L 1259 0 
L 628 0 
L 628 4666 
L 2053 4666 
Q 2853 4666 3247 4331 
Q 3641 3997 3641 3322 
Q 3641 2881 3436 2590 
Q 3231 2300 2841 2188 
z
M 1259 4147 
L 1259 2491 
L 2053 2491 
Q 2509 2491 2742 2702 
Q 2975 2913 2975 3322 
Q 2975 3731 2742 3939 
Q 2509 4147 2053 4147 
L 1259 4147 
z
" transform="scale(0.015625)"/>
      <path id="DejaVuSans-31" d="M 794 531 
L 1825 531 
L 1825 4091 
L 703 3866 
L 703 4441 
L 1819 4666 
L 2450 4666 
L 2450 531 
L 3481 531 
L 3481 0 
L 794 0 
L 794 531 
z
" transform="scale(0.015625)"/>
     </defs>
     <use xlink:href="#DejaVuSans-52"/>
     <use xlink:href="#DejaVuSans-31" transform="translate(69.482422 0)"/>
    </g>
    <!-- 10Ω -->
    <g transform="translate(129.475625 22.212375) scale(0.12 -0.12)">
     <defs>
      <path id="DejaVuSans-30" d="M 2034 4250 
Q 1547 4250 1301 3770 
Q 1056 3291 1056 2328 
Q 1056 1369 1301 889 
Q 1547 409 2034 409 
Q 2525 409 2770 889 
Q 3016 1369 3016 2328 
Q 3016 3291 2770 3770 
Q 2525 4250 2034 4250 
z
M 2034 4750 
Q 2819 4750 3233 4129 
Q 3647 3509 3647 2328 
Q 3647 1150 3233 529 
Q 2819 -91 2034 -91 
Q 1250 -91 836 529 
Q 422 1150 422 2328 
Q 422 3509 836 4129 
Q 1250 4750 2034 4750 
z
" transform="scale(0.015625)"/>
      <path id="DejaVuSans-3a9" d="M 4647 556 
L 4647 0 
L 2772 0 
L 2772 556 
Q 3325 859 3634 1378 
Q 3944 1897 3944 2528 
Q 3944 3278 3531 3731 
Q 3119 4184 2444 4184 
Q 1769 4184 1355 3729 
Q 941 3275 941 2528 
Q 941 1897 1250 1378 
Q 1563 859 2119 556 
L 2119 0 
L 244 0 
L 244 556 
L 1241 556 
Q 747 991 519 1456 
Q 294 1922 294 2497 
Q 294 3491 894 4106 
Q 1491 4722 2444 4722 
Q 3391 4722 3994 4106 
Q 4594 3494 4594 2528 
Q 4594 1922 4372 1459 
Q 4150 997 3647 556 
L 4647 556 
z
" transform="scale(0.015625)"/>
     </defs>
     <use xlink:href="#DejaVuSans-31"/>
     <use xlink:href="#DejaVuSans-30" transform="translate(63.623047 0)"/>
     <use xlink:href="#DejaVuSans-3a9" transform="translate(127.246094 0)"/>
    </g>
   </g>
   <g id="text_3">
    <!-- R2 -->
    <g transform="translate(205.709375 10.598625) scale(0.12 -0.12)">
     <defs>
      <path id="DejaVuSans-32" d="M 1228 531 
L 3431 531 
L 3431 0 
L 469 0 
L 469 531 
Q 828 903 1448 1529 
Q 2069 2156 2228 2338 
Q 2531 2678 2651 2914 
Q 2772 3150 2772 3378 
Q 2772 3750 2511 3984 
Q 2250 4219 1831 4219 
Q 1534 4219 1204 4116 
Q 875 4013 500 3803 
L 500 4441 
Q 881 4594 1212 4672 
Q 1544 4750 1819 4750 
Q 2544 4750 2975 4387 
Q 3406 4025 3406 3419 
Q 3406 3131 3298 2873 
Q 3191 2616 2906 2266 
Q 2828 2175 2409 1742 
Q 1991 1309 1228 531 
z
" transform="scale(0.015625)"/>
     </defs>
     <use xlink:href="#DejaVuSans-52"/>
     <use xlink:href="#DejaVuSans-32" transform="translate(69.482422 0)"/>
    </g>
    <!-- 20Ω -->
    <g transform="translate(201.475625 22.212375) scale(0.12 -0.12)">
     <use xlink:href="#DejaVuSans-32"/>
     <use xlink:href="#DejaVuSans-30" transform="translate(63.623047 0)"/>
     <use xlink:href="#DejaVuSans-3a9" transform="translate(127.246094 0)"/>
    </g>
   </g>
   <g id="text_4">
    <!-- I1 = 4A -->
    <g transform="translate(150.007578 38.620344) scale(0.11 -0.11)">
     <defs>
      <path id="DejaVuSans-34" d="M 2419 4116 
L 825 1625 
L 2419 1625 
L 2419 4116 
z
M 2253 4666 
L 3047 4666 
L 3047 1625 
L 3713 1625 
L 3713 1100 
L 3047 1100 
L 3047 0 
L 2419 0 
L 2419 1100 
L 313 1100 
L 313 1709 
L 2253 4666 
z
" transform="scale(0.015625)"/>
     </defs>
     <use xlink:href="#DejaVuSans-49"/>
     <use xlink:href="#DejaVuSans-31" transform="translate(29.492188 0)"/>
     <use xlink:href="#DejaVuSans-20" transform="translate(93.115234 0)"/>
     <use xlink:href="#DejaVuSans-3d" transform="translate(124.902344 0)"/>
     <use xlink:href="#DejaVuSans-20" transform="translate(208.691406 0)"/>
     <use xlink:href="#DejaVuSans-34" transform="translate(240.478516 0)"/>
     <use xlink:href="#DejaVuSans-41" transform="translate(304.101562 0)"/>
    </g>
   </g>
   <g id="text_5">
    <!-- I2 = 2A -->
    <g transform="translate(222.007578 38.620344) scale(0.11 -0.11)">
     <use xlink:href="#DejaVuSans-49"/>
     <use xlink:href="#DejaVuSans-32" transform="translate(29.492188 0)"/>
     <use xlink:href="#DejaVuSans-20" transform="translate(93.115234 0)"/>
     <use xlink:href="#DejaVuSans-3d" transform="translate(124.902344 0)"/>
     <use xlink:href="#DejaVuSans-20" transform="translate(208.691406 0)"/>
     <use xlink:href="#DejaVuSans-32" transform="translate(240.478516 0)"/>
     <use xlink:href="#DejaVuSans-41" transform="translate(304.101562 0)"/>
    </g>
   </g>
   <g id="patch_6">
    <path d="M 123.695937 31.008 
C 124.411986 31.008 125.098803 30.723511 125.605126 30.217188 
C 126.111448 29.710866 126.395938 29.024048 126.395938 28.308 
C 126.395938 27.591952 126.111448 26.905134 125.605126 26.398812 
C 125.098803 25.892489 124.411986 25.608 123.695937 25.608 
C 122.979889 25.608 122.293072 25.892489 121.786749 26.398812 
C 121.280427 26.905134 120.995937 27.591952 120.995937 28.308 
C 120.995937 29.024048 121.280427 29.710866 121.786749 30.217188 
C 122.293072 30.723511 122.979889 31.008 123.695937 31.008 
z
" clip-path="url(#p6228101b63)" style="stroke: #000000; stroke-width: 2; stroke-linejoin: miter"/>
   </g>
   <g id="patch_7">
    <path d="M 141.695937 139.008 
C 142.411986 139.008 143.098803 138.723511 143.605126 138.217188 
C 144.111448 137.710866 144.395937 137.024048 144.395937 136.308 
C 144.395937 135.591952 144.111448 134.905134 143.605126 134.398812 
C 143.098803 133.892489 142.411986 133.608 141.695937 133.608 
C 140.979889 133.608 140.293072 133.892489 139.786749 134.398812 
C 139.280427 134.905134 138.995937 135.591952 138.995937 136.308 
C 138.995937 137.024048 139.280427 137.710866 139.786749 138.217188 
C 140.293072 138.723511 140.979889 139.008 141.695937 139.008 
z
" clip-path="url(#p6228101b63)" style="stroke: #000000; stroke-width: 2; stroke-linejoin: miter"/>
   </g>
   <g id="patch_8">
    <path d="M 213.695937 139.008 
C 214.411986 139.008 215.098803 138.723511 215.605126 138.217188 
C 216.111448 137.710866 216.395937 137.024048 216.395937 136.308 
C 216.395937 135.591952 216.111448 134.905134 215.605126 134.398812 
C 215.098803 133.892489 214.411986 133.608 213.695937 133.608 
C 212.979889 133.608 212.293072 133.892489 211.786749 134.398812 
C 211.280427 134.905134 210.995937 135.591952 210.995937 136.308 
C 210.995937 137.024048 211.280427 137.710866 211.786749 138.217188 
C 212.293072 138.723511 212.979889 139.008 213.695937 139.008 
z
" clip-path="url(#p6228101b63)" style="stroke: #000000; stroke-width: 2; stroke-linejoin: miter"/>
   </g>
  </g>
 </g>
 <defs>
  <clipPath id="p6228101b63">
   <rect x="4.662937" y="0" width="278.513" height="164.028"/>
  </clipPath>
 </defs>
</svg>
