<?xml version="1.0" encoding="utf-8" standalone="no"?>
<!DOCTYPE svg PUBLIC "-//W3C//DTD SVG 1.1//EN"
  "http://www.w3.org/Graphics/SVG/1.1/DTD/svg11.dtd">
<svg xmlns:xlink="http://www.w3.org/1999/xlink" width="195.653203pt" height="251.688pt" viewBox="0 0 195.653203 251.688" xmlns="http://www.w3.org/2000/svg" version="1.1">
 <metadata>
  <rdf:RDF xmlns:dc="http://purl.org/dc/elements/1.1/" xmlns:cc="http://creativecommons.org/ns#" xmlns:rdf="http://www.w3.org/1999/02/22-rdf-syntax-ns#">
   <cc:Work>
    <dc:type rdf:resource="http://purl.org/dc/dcmitype/StillImage"/>
    <dc:date>2025-11-11T21:06:06.118091</dc:date>
    <dc:format>image/svg+xml</dc:format>
    <dc:creator>
     <cc:Agent>
      <dc:title>Matplotlib v3.10.7, https://matplotlib.org/</dc:title>
     </cc:Agent>
    </dc:creator>
   </cc:Work>
  </rdf:RDF>
 </metadata>
 <defs>
  <style type="text/css">*{stroke-linejoin: round; stroke-linecap: butt}</style>
 </defs>
 <g id="figure_1">
  <g id="patch_1">
   <path d="M 0 251.688 
L 195.653203 251.688 
L 195.653203 0 
L 0 0 
L 0 251.688 
z
" style="fill: none"/>
  </g>
  <g id="axes_1">
   <g id="patch_2">
    <path d="M 83.025 79.38 
C 87.798656 79.38 92.377438 77.483406 95.752922 74.107922 
C 99.128406 70.732438 101.025 66.153656 101.025 61.38 
C 101.025 56.606344 99.128406 52.027562 95.752922 48.652078 
C 92.377438 45.276594 87.798656 43.38 83.025 43.38 
C 78.251344 43.38 73.672562 45.276594 70.297078 48.652078 
C 66.921594 52.027562 65.025 56.606344 65.025 61.38 
C 65.025 66.153656 66.921594 70.732438 70.297078 74.107922 
C 73.672562 77.483406 78.251344 79.38 83.025 79.38 
L 83.025 79.38 
z
" clip-path="url(#pdaf289c4ad)" style="fill: none; stroke: #000000; stroke-width: 2; stroke-linejoin: miter"/>
   </g>
   <g id="line2d_1">
    <path d="M 83.025 115.38 
L 83.025 79.38 
L 83.025 79.38 
M 83.025 43.38 
L 83.025 43.38 
L 83.025 7.38 
" clip-path="url(#pdaf289c4ad)" style="fill: none; stroke: #000000; stroke-width: 2; stroke-linecap: round"/>
   </g>
   <g id="line2d_2">
    <path d="M 86.625 70.38 
L 79.425 70.38 
" clip-path="url(#pdaf289c4ad)" style="fill: none; stroke: #000000; stroke-width: 2; stroke-linecap: round"/>
   </g>
   <g id="line2d_3">
    <path d="M 83.025 55.98 
L 83.025 48.78 
" clip-path="url(#pdaf289c4ad)" style="fill: none; stroke: #000000; stroke-width: 2; stroke-linecap: round"/>
   </g>
   <g id="line2d_4">
    <path d="M 86.625 52.38 
L 79.425 52.38 
" clip-path="url(#pdaf289c4ad)" style="fill: none; stroke: #000000; stroke-width: 2; stroke-linecap: round"/>
   </g>
   <g id="line2d_5">
    <path d="M 83.025 7.38 
L 101.025 7.38 
L 119.025 7.38 
" clip-path="url(#pdaf289c4ad)" style="fill: none; stroke: #000000; stroke-width: 2; stroke-linecap: round"/>
   </g>
   <g id="line2d_6">
    <path d="M 119.025 7.38 
L 119.025 43.38 
L 128.025 46.38 
L 110.025 52.38 
L 128.025 58.38 
L 110.025 64.38 
L 128.025 70.38 
L 110.025 76.38 
L 119.025 79.38 
L 119.025 115.38 
" clip-path="url(#pdaf289c4ad)" style="fill: none; stroke: #000000; stroke-width: 2; stroke-linecap: round"/>
   </g>
   <g id="line2d_7">
    <path d="M 119.025 7.38 
L 146.025 7.38 
L 173.025 7.38 
" clip-path="url(#pdaf289c4ad)" style="fill: none; stroke: #000000; stroke-width: 2; stroke-linecap: round"/>
   </g>
   <g id="line2d_8">
    <path d="M 173.025 115.38 
L 146.025 115.38 
L 119.025 115.38 
" clip-path="url(#pdaf289c4ad)" style="fill: none; stroke: #000000; stroke-width: 2; stroke-linecap: round"/>
   </g>
   <g id="line2d_9">
    <path d="M 119.025 115.38 
L 119.025 151.38 
L 128.025 154.38 
L 110.025 160.38 
L 128.025 166.38 
L 110.025 172.38 
L 128.025 178.38 
L 110.025 184.38 
L 119.025 187.38 
L 119.025 223.38 
" clip-path="url(#pdaf289c4ad)" style="fill: none; stroke: #000000; stroke-width: 2; stroke-linecap: round"/>
   </g>
   <g id="line2d_10">
    <path d="M 119.025 223.38 
L 101.025 223.38 
L 83.025 223.38 
" clip-path="url(#pdaf289c4ad)" style="fill: none; stroke: #000000; stroke-width: 2; stroke-linecap: round"/>
   </g>
   <g id="line2d_11">
    <path d="M 119.025 115.38 
L 146.025 115.38 
L 173.025 115.38 
" clip-path="url(#pdaf289c4ad)" style="fill: none; stroke: #000000; stroke-width: 2; stroke-linecap: round"/>
   </g>
   <g id="line2d_12">
    <path d="M 173.025 223.38 
L 146.025 223.38 
L 119.025 223.38 
" clip-path="url(#pdaf289c4ad)" style="fill: none; stroke: #000000; stroke-width: 2; stroke-linecap: round"/>
   </g>
   <g id="text_1">
    <!-- VT = 12V -->
    <g transform="translate(-0 64.967187) scale(0.13 -0.13)">
     <defs>
      <path id="DejaVuSans-56" d="M 1831 0 
L 50 4666 
L 709 4666 
L 2188 738 
L 3669 4666 
L 4325 4666 
L 2547 0 
L 1831 0 
z
" transform="scale(0.015625)"/>
      <path id="DejaVuSans-54" d="M -19 4666 
L 3928 4666 
L 3928 4134 
L 2272 4134 
L 2272 0 
L 1638 0 
L 1638 4134 
L -19 4134 
L -19 4666 
z
" transform="scale(0.015625)"/>
      <path id="DejaVuSans-20" transform="scale(0.015625)"/>
      <path id="DejaVuSans-3d" d="M 678 2906 
L 4684 2906 
L 4684 2381 
L 678 2381 
L 678 2906 
z
M 678 1631 
L 4684 1631 
L 4684 1100 
L 678 1100 
L 678 1631 
z
" transform="scale(0.015625)"/>
      <path id="DejaVuSans-31" d="M 794 531 
L 1825 531 
L 1825 4091 
L 703 3866 
L 703 4441 
L 1819 4666 
L 2450 4666 
L 2450 531 
L 3481 531 
L 3481 0 
L 794 0 
L 794 531 
z
" transform="scale(0.015625)"/>
      <path id="DejaVuSans-32" d="M 1228 531 
L 3431 531 
L 3431 0 
L 469 0 
L 469 531 
Q 828 903 1448 1529 
Q 2069 2156 2228 2338 
Q 2531 2678 2651 2914 
Q 2772 3150 2772 3378 
Q 2772 3750 2511 3984 
Q 2250 4219 1831 4219 
Q 1534 4219 1204 4116 
Q 875 4013 500 3803 
L 500 4441 
Q 881 4594 1212 4672 
Q 1544 4750 1819 4750 
Q 2544 4750 2975 4387 
Q 3406 4025 3406 3419 
Q 3406 3131 3298 2873 
Q 3191 2616 2906 2266 
Q 2828 2175 2409 1742 
Q 1991 1309 1228 531 
z
" transform="scale(0.015625)"/>
     </defs>
     <use xlink:href="#DejaVuSans-56"/>
     <use xlink:href="#DejaVuSans-54" transform="translate(68.408203 0)"/>
     <use xlink:href="#DejaVuSans-20" transform="translate(129.492188 0)"/>
     <use xlink:href="#DejaVuSans-3d" transform="translate(161.279297 0)"/>
     <use xlink:href="#DejaVuSans-20" transform="translate(245.068359 0)"/>
     <use xlink:href="#DejaVuSans-31" transform="translate(276.855469 0)"/>
     <use xlink:href="#DejaVuSans-32" transform="translate(340.478516 0)"/>
     <use xlink:href="#DejaVuSans-56" transform="translate(404.101562 0)"/>
    </g>
   </g>
   <g id="text_2">
    <!-- R1 -->
    <g transform="translate(111.038437 128.098125) scale(0.12 -0.12)">
     <defs>
      <path id="DejaVuSans-52" d="M 2841 2188 
Q 3044 2119 3236 1894 
Q 3428 1669 3622 1275 
L 4263 0 
L 3584 0 
L 2988 1197 
Q 2756 1666 2539 1819 
Q 2322 1972 1947 1972 
L 1259 1972 
L 1259 0 
L 628 0 
L 628 4666 
L 2053 4666 
Q 2853 4666 3247 4331 
Q 3641 3997 3641 3322 
Q 3641 2881 3436 2590 
Q 3231 2300 2841 2188 
z
M 1259 4147 
L 1259 2491 
L 2053 2491 
Q 2509 2491 2742 2702 
Q 2975 2913 2975 3322 
Q 2975 3731 2742 3939 
Q 2509 4147 2053 4147 
L 1259 4147 
z
" transform="scale(0.015625)"/>
     </defs>
     <use xlink:href="#DejaVuSans-52"/>
     <use xlink:href="#DejaVuSans-31" transform="translate(69.482422 0)"/>
    </g>
    <!-- 10kΩ -->
    <g transform="translate(103.330312 139.711875) scale(0.12 -0.12)">
     <defs>
      <path id="DejaVuSans-30" d="M 2034 4250 
Q 1547 4250 1301 3770 
Q 1056 3291 1056 2328 
Q 1056 1369 1301 889 
Q 1547 409 2034 409 
Q 2525 409 2770 889 
Q 3016 1369 3016 2328 
Q 3016 3291 2770 3770 
Q 2525 4250 2034 4250 
z
M 2034 4750 
Q 2819 4750 3233 4129 
Q 3647 3509 3647 2328 
Q 3647 1150 3233 529 
Q 2819 -91 2034 -91 
Q 1250 -91 836 529 
Q 422 1150 422 2328 
Q 422 3509 836 4129 
Q 1250 4750 2034 4750 
z
" transform="scale(0.015625)"/>
      <path id="DejaVuSans-6b" d="M 581 4863 
L 1159 4863 
L 1159 1991 
L 2875 3500 
L 3609 3500 
L 1753 1863 
L 3688 0 
L 2938 0 
L 1159 1709 
L 1159 0 
L 581 0 
L 581 4863 
z
" transform="scale(0.015625)"/>
      <path id="DejaVuSans-3a9" d="M 4647 556 
L 4647 0 
L 2772 0 
L 2772 556 
Q 3325 859 3634 1378 
Q 3944 1897 3944 2528 
Q 3944 3278 3531 3731 
Q 3119 4184 2444 4184 
Q 1769 4184 1355 3729 
Q 941 3275 941 2528 
Q 941 1897 1250 1378 
Q 1563 859 2119 556 
L 2119 0 
L 244 0 
L 244 556 
L 1241 556 
Q 747 991 519 1456 
Q 294 1922 294 2497 
Q 294 3491 894 4106 
Q 1491 4722 2444 4722 
Q 3391 4722 3994 4106 
Q 4594 3494 4594 2528 
Q 4594 1922 4372 1459 
Q 4150 997 3647 556 
L 4647 556 
z
" transform="scale(0.015625)"/>
     </defs>
     <use xlink:href="#DejaVuSans-31"/>
     <use xlink:href="#DejaVuSans-30" transform="translate(63.623047 0)"/>
     <use xlink:href="#DejaVuSans-6b" transform="translate(127.246094 0)"/>
     <use xlink:href="#DejaVuSans-3a9" transform="translate(185.15625 0)"/>
    </g>
   </g>
   <g id="text_3">
    <!-- V1 = 8V -->
    <g transform="translate(150.396797 82.415312) scale(0.11 -0.11)">
     <defs>
      <path id="DejaVuSans-38" d="M 2034 2216 
Q 1584 2216 1326 1975 
Q 1069 1734 1069 1313 
Q 1069 891 1326 650 
Q 1584 409 2034 409 
Q 2484 409 2743 651 
Q 3003 894 3003 1313 
Q 3003 1734 2745 1975 
Q 2488 2216 2034 2216 
z
M 1403 2484 
Q 997 2584 770 2862 
Q 544 3141 544 3541 
Q 544 4100 942 4425 
Q 1341 4750 2034 4750 
Q 2731 4750 3128 4425 
Q 3525 4100 3525 3541 
Q 3525 3141 3298 2862 
Q 3072 2584 2669 2484 
Q 3125 2378 3379 2068 
Q 3634 1759 3634 1313 
Q 3634 634 3220 271 
Q 2806 -91 2034 -91 
Q 1263 -91 848 271 
Q 434 634 434 1313 
Q 434 1759 690 2068 
Q 947 2378 1403 2484 
z
M 1172 3481 
Q 1172 3119 1398 2916 
Q 1625 2713 2034 2713 
Q 2441 2713 2670 2916 
Q 2900 3119 2900 3481 
Q 2900 3844 2670 4047 
Q 2441 4250 2034 4250 
Q 1625 4250 1398 4047 
Q 1172 3844 1172 3481 
z
" transform="scale(0.015625)"/>
     </defs>
     <use xlink:href="#DejaVuSans-56"/>
     <use xlink:href="#DejaVuSans-31" transform="translate(68.408203 0)"/>
     <use xlink:href="#DejaVuSans-20" transform="translate(132.03125 0)"/>
     <use xlink:href="#DejaVuSans-3d" transform="translate(163.818359 0)"/>
     <use xlink:href="#DejaVuSans-20" transform="translate(247.607422 0)"/>
     <use xlink:href="#DejaVuSans-38" transform="translate(279.394531 0)"/>
     <use xlink:href="#DejaVuSans-56" transform="translate(343.017578 0)"/>
    </g>
   </g>
   <g id="text_4">
    <!-- R2 -->
    <g transform="translate(111.038437 236.098125) scale(0.12 -0.12)">
     <use xlink:href="#DejaVuSans-52"/>
     <use xlink:href="#DejaVuSans-32" transform="translate(69.482422 0)"/>
    </g>
    <!-- 5kΩ -->
    <g transform="translate(107.147812 247.711875) scale(0.12 -0.12)">
     <defs>
      <path id="DejaVuSans-35" d="M 691 4666 
L 3169 4666 
L 3169 4134 
L 1269 4134 
L 1269 2991 
Q 1406 3038 1543 3061 
Q 1681 3084 1819 3084 
Q 2600 3084 3056 2656 
Q 3513 2228 3513 1497 
Q 3513 744 3044 326 
Q 2575 -91 1722 -91 
Q 1428 -91 1123 -41 
Q 819 9 494 109 
L 494 744 
Q 775 591 1075 516 
Q 1375 441 1709 441 
Q 2250 441 2565 725 
Q 2881 1009 2881 1497 
Q 2881 1984 2565 2268 
Q 2250 2553 1709 2553 
Q 1456 2553 1204 2497 
Q 953 2441 691 2322 
L 691 4666 
z
" transform="scale(0.015625)"/>
     </defs>
     <use xlink:href="#DejaVuSans-35"/>
     <use xlink:href="#DejaVuSans-6b" transform="translate(63.623047 0)"/>
     <use xlink:href="#DejaVuSans-3a9" transform="translate(121.533203 0)"/>
    </g>
   </g>
   <g id="text_5">
    <!-- V2 = 4V -->
    <g transform="translate(150.396797 190.415312) scale(0.11 -0.11)">
     <defs>
      <path id="DejaVuSans-34" d="M 2419 4116 
L 825 1625 
L 2419 1625 
L 2419 4116 
z
M 2253 4666 
L 3047 4666 
L 3047 1625 
L 3713 1625 
L 3713 1100 
L 3047 1100 
L 3047 0 
L 2419 0 
L 2419 1100 
L 313 1100 
L 313 1709 
L 2253 4666 
z
" transform="scale(0.015625)"/>
     </defs>
     <use xlink:href="#DejaVuSans-56"/>
     <use xlink:href="#DejaVuSans-32" transform="translate(68.408203 0)"/>
     <use xlink:href="#DejaVuSans-20" transform="translate(132.03125 0)"/>
     <use xlink:href="#DejaVuSans-3d" transform="translate(163.818359 0)"/>
     <use xlink:href="#DejaVuSans-20" transform="translate(247.607422 0)"/>
     <use xlink:href="#DejaVuSans-34" transform="translate(279.394531 0)"/>
     <use xlink:href="#DejaVuSans-56" transform="translate(343.017578 0)"/>
    </g>
   </g>
   <g id="patch_3">
    <path d="M 119.025 10.08 
C 119.741048 10.08 120.427866 9.795511 120.934188 9.289188 
C 121.440511 8.782866 121.725 8.096048 121.725 7.38 
C 121.725 6.663952 121.440511 5.977134 120.934188 5.470812 
C 120.427866 4.964489 119.741048 4.68 119.025 4.68 
C 118.308952 4.68 117.622134 4.964489 117.115812 5.470812 
C 116.609489 5.977134 116.325 6.663952 116.325 7.38 
C 116.325 8.096048 116.609489 8.782866 117.115812 9.289188 
C 117.622134 9.795511 118.308952 10.08 119.025 10.08 
z
" clip-path="url(#pdaf289c4ad)" style="stroke: #000000; stroke-width: 2; stroke-linejoin: miter"/>
   </g>
   <g id="patch_4">
    <path d="M 119.025 118.08 
C 119.741048 118.08 120.427866 117.795511 120.934188 117.289188 
C 121.440511 116.782866 121.725 116.096048 121.725 115.38 
C 121.725 114.663952 121.440511 113.977134 120.934188 113.470812 
C 120.427866 112.964489 119.741048 112.68 119.025 112.68 
C 118.308952 112.68 117.622134 112.964489 117.115812 113.470812 
C 116.609489 113.977134 116.325 114.663952 116.325 115.38 
C 116.325 116.096048 116.609489 116.782866 117.115812 117.289188 
C 117.622134 117.795511 118.308952 118.08 119.025 118.08 
z
" clip-path="url(#pdaf289c4ad)" style="stroke: #000000; stroke-width: 2; stroke-linejoin: miter"/>
   </g>
   <g id="patch_5">
    <path d="M 119.025 118.08 
C 119.741048 118.08 120.427866 117.795511 120.934188 117.289188 
C 121.440511 116.782866 121.725 116.096048 121.725 115.38 
C 121.725 114.663952 121.440511 113.977134 120.934188 113.470812 
C 120.427866 112.964489 119.741048 112.68 119.025 112.68 
C 118.308952 112.68 117.622134 112.964489 117.115812 113.470812 
C 116.609489 113.977134 116.325 114.663952 116.325 115.38 
C 116.325 116.096048 116.609489 116.782866 117.115812 117.289188 
C 117.622134 117.795511 118.308952 118.08 119.025 118.08 
z
" clip-path="url(#pdaf289c4ad)" style="stroke: #000000; stroke-width: 2; stroke-linejoin: miter"/>
   </g>
  </g>
 </g>
 <defs>
  <clipPath id="pdaf289c4ad">
   <rect x="7.241" y="-0" width="188.3885" height="251.688"/>
  </clipPath>
 </defs>
</svg>
